<svg id="Layer_1" data-name="Layer 1" xmlns="http://www.w3.org/2000/svg" viewBox="0 0 708.78 713.37"><path d="M541.4,0c2.51,1.24,5.1,2.34,7.51,3.75,9.46,5.52,18.87,11.14,28.29,16.72a12.65,12.65,0,0,1,6.62,11.62q0,18.67,0,37.34a12.62,12.62,0,0,1-6.59,11.64c-10.35,6.16-20.7,12.34-31.1,18.42a12.6,12.6,0,0,1-13.37.06c-10.48-6.11-20.9-12.32-31.32-18.52a12.74,12.74,0,0,1-6.58-11.67q0-18.55,0-37.1a12.77,12.77,0,0,1,6.59-11.67Q517.18,11.25,533,2A43.38,43.38,0,0,1,537.17,0Zm39.72,28.92a10,10,0,0,0-4.61-6.22q-16-9.46-31.93-18.9a9.74,9.74,0,0,0-10.49.06q-15.78,9.3-31.53,18.66A10.47,10.47,0,0,0,497.12,32q0,18.8,0,37.6a10.18,10.18,0,0,0,5.11,9.22c10.75,6.43,21.52,12.83,32.36,19.09,1.61.93,3.66,1.1,5.16,1.52-.55-2.38-1.38-4.33-1.4-6.3-.12-11.67,0-23.34-.12-35a10.46,10.46,0,0,1,5.28-9.78q15.78-9.75,31.6-19.46C577.07,27.71,579,27.4,581.12,28.92Zm-34.65,53h3.71l.3,3.26c1-1.16,2.23-1.92,2.19-2.61-.11-1.89,1-3,1.89-4.32a14,14,0,0,0,1.94-4.45c1-4-.39-5.62-4.46-6.06-.83-.09-2.13-.59-2.26-1.14a3.57,3.57,0,0,1,.78-2.71,3.85,3.85,0,0,1,2.56-1.43c2.68,0,2.76-1.6,2.74-3.69h-3c-.1-1-.18-1.8-.35-3.43-1,1.25-2.16,2-2.15,2.77a6.16,6.16,0,0,1-1.73,4.13,10.79,10.79,0,0,0-1.92,4.2c-.83,3.71.43,5.23,4.2,5.52,2.62.21,3.6,1.82,2.09,3.92-.78,1.1-2.32,2.36-3.5,2.34C546.84,78.2,546.54,79.59,546.47,81.94Zm14.69-.74c2.7-1.65,5.32-3.13,7.78-4.85.59-.42.61-1.64.89-2.49l-.56-.36c-2.32,1.39-4.59,2.86-7,4.14C560.81,78.44,560.68,79.5,561.16,81.2Z" transform="translate(-5.52 0)"/><path d="M52.45,123h39c5.13,0,7.52,2.34,7.53,7.44q0,32.41,0,64.83c0,5-2.48,7.55-7.5,7.55-26.07,0-52.15,0-78.22.06a7.64,7.64,0,0,1-7.73-7.81q.18-32.3,0-64.6c0-3.55,3.05-7.62,7.46-7.55C26.13,123.12,39.29,123,52.45,123ZM18.81,143.27l13.53,13.2L19.55,169.29l6.11,6.58L45.1,156.35,25.61,136.74ZM46,176H72.2v-6.3H46Z" transform="translate(-5.52 0)"/><path d="M438.44,129.57c-.36.07-.71.15-1.07.21-2.73.48-5.79-1.09-8.21.88-2.21,1.8-4,4.06-6.1,6.05-4.7,4.56-9.49,9-14.13,13.62-3.71,3.7-7.19,7.63-10.88,11.35-2.82,2.84-5.84,5.47-8.7,8.26-3,2.93-5.86,6-8.91,8.88-1.79,1.69-3.12,4.13-6.17,4-3.69-.11-6.1-2.4-6.1-6,0-9.16,0-18.33,0-27.49a4.9,4.9,0,0,1,1.63-3.88c5.34-5.16,10.59-10.4,15.76-15.52-4.31-.22-8.52-.2-12.65-.71-3.9-.49-5.09-2.75-4.69-7.66.18-2.35,3-4.47,5.91-4.47,9,0,18,0,27,0,2.76,0,4.3,1.57,5.42,3.7a6.11,6.11,0,0,1-1.23,6.64c-7.74,7.76-15.45,15.55-23.27,23.24a5.08,5.08,0,0,0-1.72,4.3c.12,1.92,0,3.86,0,5.78l.67.46c3.15-3.3,6.26-6.66,9.48-9.9,10.38-10.44,20.82-20.82,31.18-31.28a9.32,9.32,0,0,1,7.27-3c8.14.16,16.29.06,24.44.06,3.64,0,5.55,1.13,6.73,4.25,1.05,2.77-.2,5-2.12,6.9q-15.67,15.7-31.38,31.4l-35.05,35c-.48.48-.93,1-1.75,1.87,3.11,0,5.73.07,8.35-.05a3.22,3.22,0,0,0,1.67-1.1q24.95-24.9,49.84-49.83c1.78-1.78,4.63-2.58,6.59-1.58,2.43,1.24,4.21,3,4.19,6.06-.06,8.46-.14,16.92.05,25.37a8.42,8.42,0,0,1-2.64,6.44c-2.94,3-6,5.78-9.07,8.64-2.07,2-4.17,3.88-6.29,5.83,4.73.29,9,.36,13.2.86,2.94.34,5,3.68,4.73,6.8a6.17,6.17,0,0,1-5.87,5.28c-9.16,0-18.33.06-27.49,0a5.72,5.72,0,0,1-5.61-4.12c-1-2.59,0-4.74,1.75-6.55q11.4-11.52,22.91-22.94a4.56,4.56,0,0,0,1.61-3.87c-.14-2,0-4,0-6.68-1.06,1-1.76,1.67-2.43,2.35Q425.6,187.14,406,206.86a7.58,7.58,0,0,1-6,2.48q-12.81-.19-25.61,0c-2.85,0-5.16-1.16-5.92-3.54s-.9-5.14,1.36-7.38c11.9-11.8,23.71-23.7,35.56-35.54q15.27-15.28,30.59-30.54c.85-.85,1.8-1.59,2.71-2.38Z" transform="translate(-5.52 0)"/><path d="M494,257.06l29.46-4.93c9.35-1.56,18.7-3.06,28-4.72a5.55,5.55,0,0,1,5.07,1.42q13,11,26.16,21.82a3.91,3.91,0,0,1,1.68,3.78q-2.39,25.85-4.63,51.7a2.41,2.41,0,0,1-2.06,2.38q-30.87,9.44-61.7,19c-1.82.56-2.45.07-3-1.56-4.54-12.27-9.16-24.5-13.73-36.75a11.14,11.14,0,0,1-.66-2.72q-2.31-22.67-4.55-45.35C493.87,259.82,494,258.49,494,257.06ZM505.45,274c.74-.09,1.12-.12,1.49-.18,9.87-1.73,19.81-3.12,29.57-5.34,5.52-1.25,9.88-.82,13.32,3.88s7.73,5.25,12.93,3.67a67.5,67.5,0,0,1,8.37-1.44,5.87,5.87,0,0,0-.62-.89c-6-5-12-10.06-18.07-15a3.89,3.89,0,0,0-2.75-.58c-10.05,1.58-20.09,3.24-30.13,4.91-4.92.81-9.83,1.67-14.9,2.53C504.93,268.42,505.17,271.05,505.45,274ZM507,286.51c1.08,2.55,2.08,4.74,2.94,7a1.69,1.69,0,0,0,2.3,1.23c2.9-.66,5.92-.9,8.71-1.84,4.91-1.66,8.87-1.1,12,3.43a3.21,3.21,0,0,0,2.77.74c4.28-.92,8.51-2.06,12.76-3.12l5.72-1.43c-4.17-4.19-8-8.09-11.91-11.88a3.23,3.23,0,0,0-2.35-.41c-2.32.33-4.62.85-6.92,1.29Zm27.14,31.27c-2.51-3.23-4.74-6.15-7-9a2,2,0,0,0-1.53-.74c-4.16.91-8.31,1.94-12.71,3,1.91,3.34,3.61,6.4,5.44,9.38a2,2,0,0,0,1.7.69C524.62,320.09,529.16,319,534.18,317.78Z" transform="translate(-5.52 0)"/><path d="M135.71,492.71h82.94c-.22,3.78-.4,7.19-.63,10.6q-2.1,31.73-4.22,63.45c-.25,3.74-.48,7.49-.92,11.22a3,3,0,0,1-1.64,2.09q-16.81,5.16-33.7,10.06a4.2,4.2,0,0,1-2.25-.24c-10.76-3.33-21.5-6.71-32.26-10a2.17,2.17,0,0,1-1.78-2.29q-1.55-24-3.19-48-1.16-17.31-2.34-34.64C135.67,494.19,135.71,493.42,135.71,492.71ZM190.56,543c-.52,4.47-1.07,8.57-1.44,12.68a2.18,2.18,0,0,1-1.87,2.21c-9.84,2.89-9.83,2.91-19.62-.28a3.28,3.28,0,0,0-.45-.11c-2-.31-2.73-1.38-2.49-3.42a49,49,0,0,0,0-5.43H153.87c.35,5,.76,9.93,1,14.83a2.23,2.23,0,0,0,2,2.35c6.23,1.8,12.44,3.69,18.67,5.48a5.2,5.2,0,0,0,2.74,0c6.21-1.87,12.38-3.88,18.59-5.75a2.39,2.39,0,0,0,1.92-2.48c1.32-13.46,2.73-26.92,4.1-40.39.37-3.63.66-7.28,1-11.25H150.45c.14,2.47.4,4.88.38,7.3,0,2,.73,2.45,2.64,2.42,12-.17,23.95-.21,35.93-.28,1,0,1.93.17,3,.27-.5,3.6-1,6.9-1.47,10.61H165.19V543Z" transform="translate(-5.52 0)"/><path d="M703.12,48.89c0,9.48,0,19,0,28.43,0,8.18-6.09,14.34-14.21,14.3q-28.78-.15-57.56-.51a14,14,0,0,1-13.69-14.18q0-28.55.48-57.1c.14-8.39,6.45-14.27,14.88-14.23,18.64.09,37.28.27,55.92.44a14.49,14.49,0,0,1,14.75,14.89c-.27,9.31-.06,18.64-.06,28Zm-62-24.52v49.7c.54.05,1.07.15,1.6.16,7.44.07,14.88.22,22.31.13a30.27,30.27,0,0,0,7.38-1.09c6.24-1.66,9.83-6.32,10.15-12.76s-2.4-10.42-8.46-12.81c-.11-.05-.15-.25-.25-.42,4.83-2.31,6.69-6.29,6.4-11.47a10.4,10.4,0,0,0-6.9-9.74,22,22,0,0,0-7-1.52c-5.47-.25-11-.15-16.44-.18C647.1,24.36,644.29,24.37,641.13,24.37Z" transform="translate(-5.52 0)"/><path d="M300.76,491.74H343c0,1,.12,1.82.12,2.65,0,19,0,38.06.06,57.08a6.89,6.89,0,0,0,1.24,3.8,22.05,22.05,0,0,1,.09,26.13,27.53,27.53,0,0,0-1.83,3.53l-5.32,2.72c-7.69,3.92-15.19,3.58-22.57-.89a7.94,7.94,0,0,0-3.88-1.16c-19.42-.08-38.84-.05-58.26-.05h-3V491.73h2.76c14.09,0,28.19,0,42.29-.05,1.06,0,2.13-.85,3.18-1.33,1.88-.86,3.68-2.15,5.65-2.52,2.82-.51,5.77-.28,8.65-.5,5.3-.39,6.8-1.94,7.28-7.23a2.36,2.36,0,0,1,1.07-1.54c.85,3.43.43,6.49-2.46,8.95,5,.3,7.42-1.78,7.86-6.35a2.78,2.78,0,0,1,1.09-1.67c1.17,5.24-1.21,8.92-6.29,9.62a108.83,108.83,0,0,1-11,.44C306.65,489.66,303.49,489.4,300.76,491.74Zm30.34,54.93a2.22,2.22,0,0,0,.21-.63c0-6.74,0-13.47,0-20.2,0-1.75-1-1.59-2.16-1.59h-22v12.67h-6.57c0,1.44.07,2.68,0,3.91-.16,2.15-1.54,3.51-3.45,3.35-2.06-.16-3-1.47-3.08-3.45-.05-1.22,0-2.44,0-4h-6.72V524.45H261.19c-.05.88-.11,1.57-.11,2.27q0,19.5,0,39c0,6.36,3.35,9.64,9.77,9.64q14.92,0,29.84,0h5.14C301.43,559.15,314.07,544,331.1,546.67ZM295.49,502c-9.2,0-18.18-.15-27.14.08a7.4,7.4,0,0,0-6.94,6.35c-.41,3.35-.09,6.79-.09,10.43h21.82c-.93-3.42-.27-4.59,2.78-4.9.11,1.61.23,3.22.34,4.84h.91c.63-4.08-.06-8.28.41-12.69h7.91Zm35.84,16.77c0-2.8.05-5.37,0-7.93-.12-5.45-3.57-8.88-9.05-8.93-5.78-.06-11.57,0-17.36,0h-7v4.37h9.6v12.43l.75,0v-4.78c3.1.47,3.57,1.3,3,4.88Zm-3.83,59c4.13.49,8.11.77,11.78-1.2,4.05-2.17,5-6,4.62-10.21-.31-3.56-2.52-6.52-6.06-7.19a49.64,49.64,0,0,0-9.06-.4,1.76,1.76,0,0,0-1.22,1.23C327.47,565.88,327.5,571.73,327.5,577.8Zm-15.18-.49a48,48,0,0,0,6.05.82c3.15,0,5.61-1.7,6.3-4,.75-2.5-.1-4.18-3.26-6.34.4-.3.78-.55,1.12-.84,2.69-2.33,2.17-6.08-1.12-7.36a9.36,9.36,0,0,0-8.38.9l.81,2c1.74-.21,3.23-.67,4.61-.46a3.13,3.13,0,0,1,2,2c.12.63-.84,1.72-1.59,2.19a8.54,8.54,0,0,1-2.72.54,4,4,0,0,0-.75.34c0,.65.07,1.31.1,2,1,.12,1.88.18,2.71.34,1.79.35,3.16,1.25,3,3.27s-1.78,2.69-3.55,2.63a31.86,31.86,0,0,1-4.41-.76C313,575.31,312.75,576,312.32,577.31Z" transform="translate(-5.52 0)"/><path d="M575.88,126.91c-4.56,5-8.9,9.66-12.7,13.77-4.24-2.08-7.68-4.31-11.45-5.51-8.39-2.68-16.31-.92-23.4,4.11a26.44,26.44,0,0,0-11.25,17.87c-1.46,9.14.61,17.3,7,24.3,4.23,4.59,9.24,7.75,15.33,8.62,12.67,1.81,25.22-2.53,29.45-15.56a20.1,20.1,0,0,0,.41-2.12h-25.4V153.68H589.2c.75,7.48,1,14.87-.74,22.36a44.19,44.19,0,0,1-11.19,20.87,37.16,37.16,0,0,1-19.83,11.22c-9.82,2-19.76,2.37-29.42-1.23a48.38,48.38,0,0,1-21.75-16.18,44.92,44.92,0,0,1-9.15-22.57,45.81,45.81,0,0,1,6.33-30c6-9.79,14.29-16.86,25.15-20.58a51.64,51.64,0,0,1,12.2-2.42,44.42,44.42,0,0,1,19.73,2.41A49.22,49.22,0,0,1,575.88,126.91Z" transform="translate(-5.52 0)"/><path d="M639.67,127.23c3.61,3.61,7.15,7.13,10.63,10.71a2.16,2.16,0,0,1,.33,1.67,7.81,7.81,0,0,0,3.3,8.42,3.22,3.22,0,0,1,1.15,2.24q.12,12.1,0,24.2a3.54,3.54,0,0,1-1.28,2.41c-3.82,3-4.54,7.86-1.53,11.34a7.59,7.59,0,0,0,11.25.29c3.18-3.3,2.75-8.2-.92-11.4a3.23,3.23,0,0,1-1.17-2c-.08-8.44,0-16.88,0-26l3.55,3.49c1.33,1.33,2.64,2.68,4,4,1.61,1.56,3,2.84,2.47,5.71-.71,4.1,3.34,7.85,7.55,7.81a7.82,7.82,0,0,0,7.6-7.95c-.21-4.34-4.19-7.88-8.42-7.25a3.3,3.3,0,0,1-3.27-1.09c-2.7-2.83-5.57-5.51-8.24-8.37a4.17,4.17,0,0,1-1-2.81c.33-5.3-3.36-9-8.68-8.6a6.25,6.25,0,0,1-2.15-.41c-.26-.08-.45-.43-.67-.65l-9.93-9.78c3.37-3.52,6.41-7,9.8-10.1,2.42-2.21,6-1.63,8.68,1,4.08,4,8.1,8.07,12.14,12.11l29.91,29.91c4.36,4.36,4.35,7.45,0,11.8q-20.54,20.5-41,41c-4.17,4.17-7.32,4.2-11.44.09l-41.57-41.5c-4-4-4-7.32-.07-11.3l27.59-27.57C638.61,128.18,639.07,127.78,639.67,127.23Z" transform="translate(-5.52 0)"/><path d="M430.4,682.59c1.88-.36,3.47-.64,5-1,11.49-2.51,17.5-9.83,18.09-21.65.29-5.85-.68-11.2-4.48-15.86a2.76,2.76,0,0,1-.26-2.08,21.17,21.17,0,0,0-.36-10.66c-.44-1.58-1.34-2.23-2.7-1.71-3.56,1.34-7,2.93-10.58,4.3a5.84,5.84,0,0,1-3.2.52,50.08,50.08,0,0,0-22.36,0,5.45,5.45,0,0,1-3-.47c-3.54-1.39-7-3-10.56-4.35-1.52-.58-2.43.17-2.86,1.8a21.74,21.74,0,0,0-.34,10.45,3.48,3.48,0,0,1-.48,2.48A23.69,23.69,0,0,0,408,682l2.75.46c-.82,2.07-1.56,4.09-2.44,6a2.91,2.91,0,0,1-1.41,1.36c-5,2.1-10.1.48-13.25-4a23.17,23.17,0,0,0-4-4.52,6.2,6.2,0,0,0-7-.75,11.6,11.6,0,0,0,2,2.13,14.88,14.88,0,0,1,5.83,7.46c1.86,4.57,5.34,6.57,10,6.81,2.39.13,4.8,0,7.48,0,0,3,.05,6.09,0,9.2a2.1,2.1,0,0,1-2.44,2.23,9.3,9.3,0,0,1-2.73-.52A51.36,51.36,0,1,1,439,707.9c-4.07,1.57-5.54.57-5.5-3.75,0-3.37,0-6.74.1-10.11C433.64,690,433.44,686.05,430.4,682.59Z" transform="translate(-5.52 0)"/><path d="M74.87,665.59l17.88,25.58c-.56.37-1.08.69-1.58,1.05-4.82,3.5-9.66,7-14.41,10.54-1.4,1-2.13.91-3.18-.49-5.27-7.11-10.64-14.14-16-21.19-.45-.6-1-1.15-1.64-1.94-.72.85-1.29,1.46-1.79,2.12C49,688,43.89,694.7,38.86,701.49c-1.11,1.49-1.88,1.62-3.35.46-4.53-3.61-9.15-7.11-13.81-10.55-1.36-1-1.35-1.73-.39-3,5-6.79,10-13.64,15-20.47.5-.68,1-1.39,1.62-2.37-1-.44-1.7-.84-2.46-1.11-7.95-2.87-15.89-5.77-23.88-8.53-2.06-.71-2.67-1.58-1.9-3.74,1.84-5.16,3.49-10.38,5.11-15.61.55-1.8,1.3-2.32,3.19-1.69,7.86,2.64,15.78,5.11,23.66,7.69,3.29,1.08,3.28,1.13,3.28-2.23,0-8.07.1-16.13-.06-24.2,0-2.46.75-3,3.08-3,5.71.15,11.43.14,17.14,0,2.22-.06,3,.53,3,2.85-.14,8.22-.06,16.45,0,24.67,0,.84.08,1.68.14,2.84,4.28-1.26,8.3-2.44,12.32-3.65,4.79-1.44,9.59-2.88,14.36-4.4,1.61-.51,2.39-.12,2.92,1.53q2.57,8.18,5.39,16.26c.63,1.8,0,2.6-1.62,3.14q-12.14,4.07-24.24,8.18C76.53,664.82,75.86,665.17,74.87,665.59Z" transform="translate(-5.52 0)"/><path d="M629.79,325.26l49.75,6V262.73l-20,4.64c-3.74.86-7.45,1.88-11.22,2.57-2,.37-2.62,1.15-2.6,3.22.1,13.86,0,27.72.1,41.58a3,3,0,0,1-2.15,3.3c-5.27,2.18-10.47,4.52-15.94,6.9a16.85,16.85,0,0,1-.19-1.82q0-27.5,0-55a2.42,2.42,0,0,1,1.83-2.74c16.17-5.91,32.3-11.92,48.48-17.81a6.83,6.83,0,0,1,4-.05c8,2.44,16,5.07,24,7.54,1.64.5,2.12,1.29,2.12,3q-.09,37.47,0,74.95c0,1.62-.33,2.46-2.07,2.95-8.13,2.32-16.2,4.84-24.31,7.2a5.86,5.86,0,0,1-3.37,0q-23.68-8.37-47.31-16.89a8.92,8.92,0,0,1-1.15-.59Z" transform="translate(-5.52 0)"/><path d="M543.33,537.87v2.7c0,8.22,0,16.44,0,24.66a15.63,15.63,0,0,1-14.43,15.65A15.83,15.83,0,0,1,512,565.94c-.37-6.62,4.41-13.37,10.9-15.36l2.42-.74c-8.69-2.89-13.06-8-13.33-15.27s3.88-12.16,12.57-15.7c-2.3-1.34-5.15-2.53-7.4-4.42A14.93,14.93,0,0,1,513,497.76a15.41,15.41,0,0,1,14-10.18c10.89-.14,21.77-.16,32.65,0a15.51,15.51,0,0,1,15,13.9,15.69,15.69,0,0,1-11.35,16.6c-.52.15-1,.27-2.24.56,4.83,1.14,8.45,3.17,10.92,6.88a15.08,15.08,0,0,1,2.37,12.08,15.74,15.74,0,0,1-14.59,12.19C552.57,550.28,546.76,546,543.33,537.87Zm11.81-19H543.42v11.68A17.74,17.74,0,0,1,555.14,518.84Z" transform="translate(-5.52 0)"/><path d="M207.22,37.76c-14.1,8.27-13.08,28.5,2.58,35.89a32,32,0,0,1-2.05,4.81c-2.92,4.7-5.66,9.56-9.12,13.84-4.48,5.54-9.33,6.53-16,3.73a21.81,21.81,0,0,0-18.16.08q-8.89,4-15.45-3.36c-9.75-10.85-15.31-23.43-15-38.11.2-9.77,4-18,13-22.94a19.51,19.51,0,0,1,16.76-1.37l.22.09c5.67,3.09,11.14,2.43,17,0A22,22,0,0,1,207.22,37.76Z" transform="translate(-5.52 0)"/><path d="M696.85,691.63c2.67-9.9,5.2-19.25,7.93-29.32,2.25,3.4,4.23,6.31,6.09,9.29.26.42,0,1.22-.13,1.82-2.38,11-4.79,22-7.16,33.06-.44,2-1.51,2.68-3.54,2.33-12-2.09-23.93-4.09-35.88-6.23a3.82,3.82,0,0,1-2.37-1.89c-1.27-2.66-2.27-5.46-3.6-8.79L689,696.47c-3.65-5.52-7-10.52-10.28-15.52-2.47-3.71-4.91-7.46-7.47-11.11a3.51,3.51,0,0,0-2.33-1.46c-11.13-.1-22.25-.07-33.37-.06a1.13,1.13,0,0,0-.44.12c7.45,7.68,14.91,15.39,22.65,23.39-4.19,0-8.14.08-12.07-.07a4.41,4.41,0,0,1-2.31-1.46q-12.52-11.88-25-23.82c-2.11-2-2.14-2.68-.14-4.85,8-8.65,15.89-17.31,24-25.86a6.34,6.34,0,0,1,3.83-1.65c3.08-.24,6.2-.07,10-.07l-21.56,25.52a17.73,17.73,0,0,0,1.83.2c10.65,0,21.3,0,32,0,1.25,0,2.17-.11,2.84-1.44,4.77-9.52,9.62-19,14.44-28.49a8,8,0,0,0,.37-1.24L656.05,634c1.39-3.44,2.49-6.43,3.83-9.31a3.59,3.59,0,0,1,2.21-1.47c11.16-2.77,22.36-5.44,33.53-8.22,1.93-.48,3,.15,3.58,1.94,3.8,10.94,7.63,21.87,11.4,32.83a3.42,3.42,0,0,1,0,2.44c-1.74,3.21-3.65,6.34-5.84,10.07l-10.19-29.46c-1.81,3.58-3.38,6.68-4.94,9.78-3.34,6.64-6.7,13.27-10,20a2.82,2.82,0,0,0-.15,2.31C685.12,673.66,690.81,682.36,696.85,691.63Z" transform="translate(-5.52 0)"/><path d="M385.57,555.36c-3.5-1.45-6.91-2.49-9.94-4.21a38.91,38.91,0,0,1-8.83-6.45c-4.78-4.92-4.6-11.12,0-16.24,4.22-4.68,9.8-7.15,15.6-9.2l2.71-1a71.42,71.42,0,0,1-1.31-8.15,53.11,53.11,0,0,1,.23-11.21c1.45-9,8.13-12.78,16.76-9.93,5.93,2,10.71,5.75,15.25,9.89l1.53,1.43,1.9-1.74c4.44-4,9.12-7.66,14.87-9.63,8.76-3,15.43.92,17.15,10.06a39.16,39.16,0,0,1-.87,16.76c-.55,2.23.16,2.81,2,3.4a39,39,0,0,1,14,7.36c2.61,2.23,4.68,4.88,5.23,8.38.65,4.22-1,7.67-3.88,10.61-4,4.05-9,6.38-14.29,8.3-1.3.48-2.62.92-3.87,1.35.66,4,1.65,7.86,1.81,11.72a40.57,40.57,0,0,1-.93,11.6c-1.79,7-7.45,10-14.5,8.29-5.79-1.4-10.47-4.79-14.93-8.55-1.19-1-2.32-2.08-3.67-3.29a25.32,25.32,0,0,1-2.76,2.46c-4.26,2.87-8.46,5.87-12.93,8.38a12.82,12.82,0,0,1-9.83,1c-4.94-1.37-8.42-6.07-8.55-12.74-.1-5.12.73-10.26,1.21-15.38A24.39,24.39,0,0,1,385.57,555.36Zm32-.69c3-.14,6.15-.2,9.26-.49a3.52,3.52,0,0,0,2.41-1.38q4.11-6.82,7.92-13.84a3.36,3.36,0,0,0,0-2.74q-4.46-8-9.22-15.8a3.4,3.4,0,0,0-2.42-1.4q-7.86-.18-15.73,0a3.38,3.38,0,0,0-2.4,1.43c-3.21,5.27-6.31,10.62-9.34,16a2.81,2.81,0,0,0,0,2.34c2.59,4.73,5.25,9.43,8,14.05a3.55,3.55,0,0,0,2.45,1.33C411.46,554.46,414.44,554.52,417.54,554.67Zm3.64,17c4.64,4.43,9.52,8.68,16,10.48,4.7,1.32,8-.47,9.23-5,1.91-7,.39-13.74-1.26-20.5-4.5.68-8.74,1.3-13,2a2.71,2.71,0,0,0-1.53.92C427.49,563.47,424.41,567.48,421.18,571.65Zm-30.86-15.09c-1.76,6.6-3.09,13.25-1.4,20.08,1.2,4.83,4.46,6.68,9.22,5.38,6.49-1.78,11.33-6.07,16-10.43-3.23-4.17-6.28-8.13-9.38-12.06a2.69,2.69,0,0,0-1.49-.95C399,557.87,394.78,557.25,390.32,556.56Zm23.86-52.94c-4.72-4.43-9.51-8.59-15.81-10.39-4.95-1.42-8.58.49-9.45,5.56a58,58,0,0,0-.3,11.65,41.84,41.84,0,0,0,1.14,6.38c5.24-.78,10-1.46,14.82-2.22a2.75,2.75,0,0,0,1.53-.89C408.77,510.45,411.38,507.13,414.18,503.62Zm31.3,13.14c1.42-5.95,2.43-11.87,1-17.91-1.14-4.89-4.32-7-9-5.77-6.67,1.72-11.62,6.11-16.39,10.63,2.72,3.4,5.24,6.6,7.82,9.74a3.05,3.05,0,0,0,1.65,1.11C435.44,515.34,440.32,516,445.48,516.76Zm3,33.76c5.83-1.78,11.32-3.84,15.74-7.94,4.13-3.83,4.19-7.89.1-11.74-4.31-4.07-9.69-6.14-15.23-7.84-1.92,4.8-3.78,9.43-5.62,14.07a1.63,1.63,0,0,0,0,1.11C445.07,542.23,446.74,546.26,448.49,550.52ZM386.29,523c-5.67,1.81-11.22,3.88-15.54,8.23-3.58,3.6-3.55,7.33,0,10.89,4.47,4.43,10.17,6.53,16,8.32,1.73-4.21,3.4-8.24,5-12.29a2,2,0,0,0,0-1.34C390,532.26,388.17,527.71,386.29,523Zm31.31,45.11,7.24-8.74H410.39Zm26.71-46.56-11-1.89c2.58,4.37,4.79,8.14,7.2,12.23C441.86,528.32,443,525.18,444.31,521.56Zm-53.34.1c1.34,3.62,2.51,6.75,3.8,10.22l7.1-12.26Zm21-7.77h11.36l-5.69-6.7C415.73,509.49,414,511.54,412,513.89Zm22.7,39.62,9.08-1.7c-1.17-3-2.14-5.58-3.25-8.5Zm-39.88-10.2c-1.11,3-2.09,5.53-3.2,8.47l9,1.66Z" transform="translate(-5.52 0)"/><path d="M291,338.68c-1.89,0-3-.46-2.78-2.42a16.89,16.89,0,0,0-.08-2.35,15.25,15.25,0,0,0-5.49-11.46c-15.21-13.91-20.78-31.16-16.17-51.46,2.67-11.74,8-22,16.73-30.38,2.07-2,4.74-3.49,4.93-7.39.55,1,.79,1.49,1.11,1.95,2,2.8,3.7,5.81,6,8.32,11.88,13.05,18.41,28.11,17.15,45.93-1,14-7.2,25.62-18,34.6a7.91,7.91,0,0,0-3.22,6.42c0,1.41-.09,2.82-.11,4.23S291,337.3,291,338.68Z" transform="translate(-5.52 0)"/><path d="M437.86,443c0,3.71.19,7-.06,10.26-.23,3-2.43,4.83-4.78,6.34A30.2,30.2,0,0,1,419.5,464c-7.44.77-14.72.16-21.6-3-4.89-2.28-7.82-5.72-7.28-11.58.65-7.15.58-14.39,1.55-21.48.86-6.18,4.45-8.82,10.7-9.06,6.42-.24,12.84-.28,19.26-.48a46,46,0,0,0,6.52-.62c5.8-1,9.43-4.56,10.54-10.26a90.25,90.25,0,0,0,1.22-11.87c.09-1.58.45-2.27,2.14-2.15a34.18,34.18,0,0,0,5.16,0c4.39-.35,7.34,1.8,9.41,5.37,4.23,7.3,4.85,15.28,4.08,23.44a30,30,0,0,1-4.3,13.54c-2.07,3.26-4.8,5-8.92,5-10.1-.18-20.2-.06-30.31-.06a3.78,3.78,0,0,0-1.39,0,15.63,15.63,0,0,0-2,1.24c.64.37,1.27,1,1.92,1.05,5.72.08,11.43,0,17.15,0Zm-6.15,9.35a4.44,4.44,0,0,0-4.43-4.22,4.37,4.37,0,0,0-4.35,4.51,4.44,4.44,0,0,0,4.53,4.13A4.5,4.5,0,0,0,431.71,452.39Z" transform="translate(-5.52 0)"/><path d="M391,391.14c0-3.8-.31-7.4.09-10.92.32-2.79,2.64-4.55,5-5.9,7.07-4.06,14.79-4.88,22.73-4.17a31.55,31.55,0,0,1,13.84,4.14c3.53,2.13,5.64,5,5.34,9.4-.46,6.94-.34,13.92-1.05,20.83s-4.16,10.21-11.11,10.76c-5.45.43-10.94.36-16.41.53-2.74.09-5.5.05-8.2.39-7,.88-11,4.76-12.05,11.74-.63,4.08-.87,8.22-1.3,12.43-3.5,0-7.24.51-10.73-.2-2-.4-3.91-2.54-5.21-4.37-3-4.17-4-9.14-4.5-14.17-.75-7.71.09-15.18,3.75-22.14,2.14-4.05,5.27-6.23,10.18-6.12,10.25.23,20.52.08,30.78.05.88,0,2.37.51,2.1-1.21-.07-.45-1.35-1-2.08-1-6.18-.08-12.37-.05-18.56-.05Zm14.76-9.48a4.35,4.35,0,0,0-8.7.12,4.35,4.35,0,0,0,8.7-.12Z" transform="translate(-5.52 0)"/><path d="M342.56,713.37H249.67V620.22h92.89Zm-8.47-8.69V628.62h-76v76.06Z" transform="translate(-5.52 0)"/><path d="M7.47,105.24V12.33h92.92v92.91Zm8.45-84.49v76h76v-76Z" transform="translate(-5.52 0)"/><path d="M363.57,335.2V244.09H454.8V335.2Zm83-82.8H372v74.51h74.59Z" transform="translate(-5.52 0)"/><path d="M65.49,448.59c-.27-3.79-.61-7.58-.74-11.38,0-.42,1.1-1.08,1.8-1.28,5-1.5,10.08-2.84,15.08-4.39a4.13,4.13,0,0,0,2.36-2,2.85,2.85,0,0,0-.58-2.69A4.77,4.77,0,0,0,80,426.3c-4.46,1.14-8.86,2.53-13.29,3.82-.44.12-.91.15-2.06.34.81-3.94,1.38-7.6,2.35-11.16.85-3.13,0-4.6-3.35-4.64-4.07-.05-8.14-.06-12.2-.09-.14,0-.28-.12-.64-.29,1.14-11.71,5.37-22.45,11.1-33.12H56.07l-.51-.7c2.37-3.23,4.67-6.52,7.17-9.65a2.42,2.42,0,0,1,3.76-.11c1.3,1.2,1.27,2.57.18,4-1.5,1.94-3,3.92-4.76,6.29,1.43.06,2.26.13,3.08.13H96.92c3.38,0,4.12.75,4.12,4.14q0,29.46,0,58.94c0,3.29-.82,4.1-4.17,4.11q-14.45,0-28.89,0a23.91,23.91,0,0,0-2.52.26ZM73.06,398c0-1,.07-2,0-3a2.61,2.61,0,0,0-2.74-2.64,2.52,2.52,0,0,0-2.73,2.6q-.14,2.93,0,5.85a2.51,2.51,0,0,0,2.7,2.62A2.58,2.58,0,0,0,73,400.81,26.14,26.14,0,0,0,73.06,398Z" transform="translate(-5.52 0)"/><path d="M59.69,448.32l-43.69,0c-3.72,0-4.43-.7-4.43-4.33V385.23c0-3.41.71-4.13,4.12-4.13q18.68,0,37.35,0h2.31c-1.62,3.75-3.25,7.27-4.68,10.87a76.33,76.33,0,0,0-5.54,23.44c-.26,4,.53,4.84,4.58,4.84H60.64c-.45,3.53-.8,6.86-1.38,10.14-.08.45-1.32,1.07-1.94,1-5.57-.76-11.14-1.53-16.65-2.58a61.65,61.65,0,0,1-7.82-2.48c-2.22-.74-3.74-.29-4.35,1.35s.18,3.06,2.36,3.86c8.72,3.19,17.6,5.61,27,5.54a6.1,6.1,0,0,1,1,.12c.27,3.77.54,7.48.81,11.2Zm-20.2-50.44c0-.94,0-1.88,0-2.81a2.66,2.66,0,0,0-2.66-2.74,2.6,2.6,0,0,0-2.88,2.5,35.27,35.27,0,0,0,0,6.08,2.57,2.57,0,0,0,2.87,2.49,2.64,2.64,0,0,0,2.67-2.72C39.56,399.75,39.49,398.81,39.49,397.88Z" transform="translate(-5.52 0)"/><path d="M212.23,308.58a1.76,1.76,0,0,1,0,.23c-.23,2.4-1.42,5.31-.46,7.06,1.21,2.22,1.45,4.51,2.32,6.67.58,1.45,2.14,2.56,3.39,3.66a25.19,25.19,0,0,0,2.66,1.47,3.45,3.45,0,0,1,.46,5.77,4.85,4.85,0,0,1-1.54,1.05c-5.88,2.15-10.45,6.18-15.06,10.2-3.9,3.41-8,4-11.86,1.88-.61-.34-1.39-.67-1.69-1.23-1.35-2.5-3.7-2.64-6-2.65-5.38,0-10.77-.14-16.13.19-1.7.11-3.45,1.31-4.93,2.36a8.72,8.72,0,0,1-7.74,1.65c-3.16-.88-6.24-2-9.41-2.89-4.23-1.12-8.53-2-12.75-3.11-4.44-1.19-4.77-2.44-2.78-6.48a15.47,15.47,0,0,0,1.15-5.78c.1-1.53-.47-3.09-.55-4.65-.19-3.52,1.63-5.36,5.16-5.39,4.34,0,5.35-1.34,5.48-5.77a14.55,14.55,0,0,1,1.77-6.21,65.88,65.88,0,0,0,6-14.46c.61-2.33,2.2-4.44,3.52-6.54a23.37,23.37,0,0,1,3-3.61,16.44,16.44,0,0,0,4.54-15.06,66,66,0,0,1-.71-13.11c.4-11.91,7.22-15.76,17.68-14.56,8.8,1,13.3,5.81,14.5,14.61.63,4.57.78,9.22,1.72,13.72a35.21,35.21,0,0,0,3.56,9.54,70.72,70.72,0,0,0,6.24,8.78C208.82,292.63,212.05,300,212.23,308.58Zm-50.8,22.21a6.44,6.44,0,0,0,5.53,4.74c8.12,1.49,15.18-.48,21-6.51,1.76-1.81,2.71-3.63,2-6.28a9.76,9.76,0,0,1,.21-4.18c.6-3.27,1.94-4.15,5.81-3.53,0-2.71,0-5.35,0-8,0-5.76-.94-11.18-4.52-15.95a21.57,21.57,0,0,1-2.39-5.06c-1.72-4.3-3.35-8.63-5-12.82a100,100,0,0,1-9.15,5.06c-3.27,1.41-6.59,1.27-9.28-1.62a6,6,0,0,0-1.33-.8c-2.33,5.83-4.35,11.57-6.9,17.07-2.86,6.16-6.18,12.12-5.58,19.41-2-1.67-2.47-2.77-2.24-5.21a30.56,30.56,0,0,1,4.8-13.1c.29-.48.55-1,.84-1.49-.37-.15-.56-.3-.65-.25a1.84,1.84,0,0,0-.71.53c-2.58,4.5-5,9.09-5.48,14.35a6.75,6.75,0,0,0,2.37,6.12c2.17,1.79,4.49,3.39,6.66,5.18a58.72,58.72,0,0,1,6.11,5.44c2.66,2.89,2.26,4.45-1.21,6.38Zm2.48,8.56a34.42,34.42,0,0,0-2.58-6.29c-3.26-5.31-6.84-10.44-10.37-15.59a10.79,10.79,0,0,0-2.69-2.57c-2.67-1.85-5.35-.91-6.11,2.27a2.85,2.85,0,0,1-3.12,2.48c-1,0-2,0-3,.09-2.48.25-3.6,1.48-3.61,4a10.82,10.82,0,0,0,.36,2.78,10.49,10.49,0,0,1-1.23,8.53c-1.72,2.86-1.21,3.87,2.06,4.88.89.28,1.81.45,2.72.69q7.11,1.89,14.22,3.8c2,.55,4,1.34,6.07,1.71C160.31,346.78,163.92,344,163.91,339.35Zm47.51-22.61c-1.49,1.32-2.56,2.38-3.74,3.3s-2.53,2.23-4,2.7c-3.69,1.19-6.31-.64-7.77-4.72-.31-.86-1.34-1.47-2-2.19-.75.77-1.86,1.43-2.16,2.35a18.73,18.73,0,0,0-.39,4.4c-.37,6.07-.59,12.15-1.18,18.19A4.34,4.34,0,0,0,191.8,345a6.74,6.74,0,0,0,6.6,1.41,18.67,18.67,0,0,0,6-3.47c4.27-3.73,8.65-7.18,14-9.18,1.81-.67,2.66-2.14,1.78-3.92a5.35,5.35,0,0,0-2.57-2.25c-3.23-1.38-4.74-3.86-5.23-7.2A35.8,35.8,0,0,0,211.42,316.74Zm-47.79-44c1.14,1.15,2.22,2.38,3.44,3.45a5.81,5.81,0,0,0,6.35,1.29,77.76,77.76,0,0,0,10.65-6.23c1.83-1.26,1.51-2.81-.54-3.78-2.32-1.1-4.82-1.82-7.14-2.92a8.4,8.4,0,0,0-9.27.75,38.12,38.12,0,0,0-4.19,4.41c1.77,1.28,3.38,3,5.34,3.74,3.28,1.29,6.23-.46,9-2,1.3-.71,2.54-1.54,3.8-2.31C177.49,273.6,170.33,276.92,163.63,272.77Zm38.24,38.08c.36-3.32.88-6.39,1-9.48a12.11,12.11,0,0,0-3.87-9.71,13.14,13.14,0,0,0-2.76-1.53l-.46.61c5.1,2.54,5.85,7.09,6,12.07.18,5.15-2.32,9-5.71,12.63,2.06-2.55,4.32-3.89,7.61-3.44a9.16,9.16,0,0,1,7,4.07C209.43,311.33,205.42,311.27,201.87,310.85Zm-18-44.23c0-2.82.11-5.2,0-7.57a3.77,3.77,0,0,0-3.74-3.78c-2-.2-3.76.27-4.68,2.28a6.09,6.09,0,0,0,1.39,6.27c.22-2.24-.47-5,2.52-5.58a3.89,3.89,0,0,1,2.89,1.42c1.44,1.72,1.06,3.73-.8,6.16Zm-15.26-3.51,1.08-.17c-.46-1.87-.56-3.93-1.47-5.54a2.69,2.69,0,0,0-5.06.52,15.14,15.14,0,0,0-.53,5.7c.06.9,1.11,1.73,1.87,2.81-.37-2.24-.95-3.95-.81-5.59a3.16,3.16,0,0,1,2.21-2.2c.72-.07,1.73,1.19,2.3,2.07A6.46,6.46,0,0,1,168.64,263.11Z" transform="translate(-5.52 0)"/><path d="M274,460.77c2.46-1.12,4.33-2.08,6.29-2.81a2.92,2.92,0,0,1,2.15.28c2.46,1.36,4.88,2.81,7.26,4.31a3.09,3.09,0,0,0,3.66.09c8.36-4.9,16.77-9.73,25.16-14.59,3-1.76,6.14-3.44,9.09-5.35a3.82,3.82,0,0,0,1.61-2.68c.11-13.39.06-26.79.1-40.18a2.94,2.94,0,0,0-1.82-2.9q-16.61-9.48-33.1-19.13a4.78,4.78,0,0,0-5.55-.06c-11.18,6.59-22.46,13-33.66,19.56a3.23,3.23,0,0,0-1.36,2.34q-.12,20.21,0,40.42a3.59,3.59,0,0,0,1.49,2.49c2.89,1.85,5.92,3.5,8.91,5.21,4.91,2.81,9.07.45,9.07-5.15V404.56c0-3.29,0-3.29,3.18-3.3a11.61,11.61,0,0,0,1.18,0c2-.23,2.54.68,2.53,2.59-.06,13.4,0,26.79-.1,40.19a21.1,21.1,0,0,1-1.59,6.74c-1,2.74-3.45,3.93-6.13,4.6-5.5,1.36-10.1-1-14.63-3.61-2-1.18-4.08-2.32-6.1-3.51a8.43,8.43,0,0,1-4.57-7.66q0-20.55,0-41.12a8.2,8.2,0,0,1,4.3-7.57q18.15-10.56,36.36-21a7.54,7.54,0,0,1,7.85,0c9,5.11,17.89,10.29,26.83,15.44,2.85,1.64,5.66,3.34,8.54,4.91,3.27,1.8,5.07,4.17,5,8.23-.19,13.78-.16,27.57,0,41.36a7.82,7.82,0,0,1-4.3,7.45q-17.36,10.05-34.71,20.09c-3.41,2-6.73,2.13-10.17,0C282.68,465.82,278.5,463.43,274,460.77Z" transform="translate(-5.52 0)"/><path d="M222.31,613.52V659.1H171.13V621Z" transform="translate(-5.52 0)"/><path d="M171.05,702.46v-38h51.21v45.24Z" transform="translate(-5.52 0)"/><path d="M285.94,52.25c4.83-6.11,9.9-11.52,16.44-15.32,11.91-6.93,26.09-4.25,33.79,6.35,7.37,10.15,6.79,24.09-1.39,33.14s-21.11,11-32.34,4.45c-6.54-3.79-11.63-9.19-16.3-15.08-2.81,3-5.43,6.07-8.33,8.85-5,4.84-10.76,8.54-17.83,9.79-13.5,2.39-27-7.59-29.08-21.13-2.53-16.19,9.22-29,22.52-30.18,7-.62,13.12,1.59,18.79,5.42A56.39,56.39,0,0,1,285.94,52.25ZM255.76,77.87c2.74-.82,5.64-1.32,8.21-2.51,7.23-3.36,12.46-9,16.78-15.58a2.37,2.37,0,0,0-.24-2.18c-3.18-3.73-6.22-7.64-9.81-10.94a22.16,22.16,0,0,0-14.36-6.2c-11.77-.42-19.86,10.26-18.16,21.31A18.93,18.93,0,0,0,255.76,77.87Zm59.8-.46c8.4-.06,14.72-4.44,17.35-12.14,2.54-7.43,1.09-14.34-4.56-19.86-5.36-5.23-11.91-6.36-18.88-3.59-8,3.19-13.62,9.24-18.27,16.26a2.13,2.13,0,0,0,.21,2,137.6,137.6,0,0,0,10.24,11.19A21.79,21.79,0,0,0,315.56,77.41Z" transform="translate(-5.52 0)"/><path d="M381.63,91.61a15.71,15.71,0,0,1-9.29-4.22,26.27,26.27,0,0,1-8-14.32c-2.07-9.42-1.47-18.61,3.71-27a25.28,25.28,0,0,1,6.53-6.91c1.94-1.4,2.6-2.69,2.48-4.91-.58-11.13,4.71-19.14,13.63-25.12A39.73,39.73,0,0,1,406.07,3c12.61-2.2,24.71-.92,35.64,6.27,8.9,5.86,14.09,13.92,13.5,25-.13,2.37.6,3.68,2.64,5.06a19.71,19.71,0,0,1,6,6.17c7.21,12.5,7.2,25.18-.18,37.62a16.6,16.6,0,0,1-13,8.45V88.8c0-17.78-.3-35.56.11-53.33.28-11.91-5.2-19.84-15.42-24.55-14.48-6.68-28.94-6.18-42.6,2.42-7.53,4.73-11.31,11.68-11.19,20.89.23,18.16.07,36.33.07,54.5Zm73.76-6.88c5.94-3.27,9.87-13.82,8.86-23.94-.69-6.88-2.94-13-8.86-17.87ZM377,43.52c-7.32,6-9.48,13.93-9,22.79.45,8.11,4.48,16.21,9,18.41Z" transform="translate(-5.52 0)"/><path d="M127.23,659.46v-32.4l38.86-5.34v37.74Z" transform="translate(-5.52 0)"/><path d="M127.21,663.93h38.88v37.92l-38.88-5.38Z" transform="translate(-5.52 0)"/><path d="M127.23,161.75c0-6.5,0-13,0-19.5a9.46,9.46,0,0,1,5.27-9q17.52-9.79,35-19.68a10.13,10.13,0,0,1,10.86,0q17.35,9.87,34.81,19.56a9.67,9.67,0,0,1,5.42,9.14q-.09,19.62,0,39.25a9.5,9.5,0,0,1-5.26,9q-17.62,9.87-35.22,19.79a9.83,9.83,0,0,1-10.44,0q-17.58-10-35.22-19.79a9.47,9.47,0,0,1-5.22-9C127.28,174.91,127.23,168.33,127.23,161.75Zm87-2.15c0-6,0-11.7,0-17.41a5.3,5.3,0,0,0-3-5.12q-17.62-9.85-35.2-19.81a5.81,5.81,0,0,0-6.2,0q-17.48,9.88-35,19.68a5.66,5.66,0,0,0-3.23,5.48q.1,19.5,0,39a5.48,5.48,0,0,0,3.06,5.33q17.64,9.84,35.2,19.8a5.63,5.63,0,0,0,6,.07q17.79-10.05,35.61-20a5,5,0,0,0,2.76-4.8c0-5.4,0-10.81,0-16.21a7.34,7.34,0,0,0-.23-1.31h-4.05c-.07,1.45-.13,2.73-.18,4h-4.1c-.1-1.41-.2-2.7-.3-4.09l-4-.25v-4.06l4-.32c.11-1.43.2-2.71.29-4h4.31v4Z" transform="translate(-5.52 0)"/><path d="M573.46,612.81c-2,3.2-4.21,4.51-7.85,4.47-18.48-.23-37-.11-55.45-.11-5.84,0-8.11,2.27-8.11,8.1v66.26c0,6,2.24,8.2,8.25,8.2h66.26c5.79,0,8.05-2.29,8.05-8.15,0-19.58.14-39.16-.11-58.74,0-3.76,1.71-5.85,4.34-8.28,0,.89.12,1.46.12,2q0,32.43,0,64.85c0,8.47-4.23,12.68-12.73,12.68h-66c-8.16,0-12.54-4.35-12.54-12.43q0-33.24,0-66.49c0-8,4.34-12.38,12.32-12.39h63.47Z" transform="translate(-5.52 0)"/><path d="M258,130.87c-.63,1.84-1.21,3.27-1.61,4.74-3.43,12.5-.62,23.89,6.43,34.38,11.74,17.48,33.49,25.73,53.26,20.37,6.05-1.64,9.37-3.69,16.89-10.58a19.38,19.38,0,0,1-.8,1.94c-8.33,14.59-21.11,21-37.69,21.12-24.41.18-47.81-22.19-47.56-47.19C247,145.89,251.1,138,258,130.87Z" transform="translate(-5.52 0)"/><path d="M11.68,541.32c0-6.41,0-12.83,0-19.25a9.13,9.13,0,0,1,5-8.63q17.42-9.74,34.78-19.54a9.09,9.09,0,0,1,9.58,0q17.48,9.84,35,19.66a9,9,0,0,1,4.9,8.46q0,19.37,0,38.74A9,9,0,0,1,96,569.17L61,588.83a9.07,9.07,0,0,1-9.57-.07Q34.08,579,16.67,569.22a9.15,9.15,0,0,1-5-8.64C11.72,554.16,11.68,547.74,11.68,541.32Zm4.27.12c0,6.26.06,12.53,0,18.8a5.62,5.62,0,0,0,3.19,5.5Q36.24,575.3,53.3,585a5.61,5.61,0,0,0,6,0q17.18-9.71,34.39-19.35a5.34,5.34,0,0,0,3-5.12q-.06-19.15,0-38.31a5.35,5.35,0,0,0-3-5.14q-17.22-9.63-34.39-19.34a5.63,5.63,0,0,0-6,0q-17.07,9.66-34.19,19.22a5.59,5.59,0,0,0-3.21,5.48C16,528.75,16,535.09,16,541.44Z" transform="translate(-5.52 0)"/><path d="M543.43,369.89h37.35c3.68,0,3.84.13,3.5,3.9q-2.24,25.38-4.52,50.77c-.75,8.34-1.53,16.68-2.18,25a3.24,3.24,0,0,1-2.65,3.32c-9.87,2.78-19.71,5.64-29.59,8.37a7.77,7.77,0,0,1-3.92,0c-9.95-2.76-19.86-5.66-29.81-8.44a3.11,3.11,0,0,1-2.49-3.18q-3.31-37.67-6.71-75.33c0-.54,0-1.1-.09-1.64-.27-2.16.67-2.86,2.82-2.84C517.9,369.93,530.66,369.89,543.43,369.89Zm-36.82,3.9c0,.91-.06,1.68,0,2.44q3.15,35.43,6.27,70.87c.15,1.66.89,2.23,2.34,2.63,8.74,2.44,17.44,5,26.19,7.41a7.61,7.61,0,0,0,3.85,0c8.67-2.38,17.3-4.94,26-7.33,1.78-.49,2.43-1.27,2.6-3.18,1.78-21,3.69-41.94,5.56-62.91.29-3.31.54-6.62.81-9.94Z" transform="translate(-5.52 0)"/><path d="M302.24,399.34c3.82,1,7.78,1.64,11.41,3.1,4.29,1.73,5.67,5.77,6.2,10.07a1.52,1.52,0,0,1-.34,1.06c-1.11,1.32-6.24.53-6.67-1.13-1-3.9-3.77-5.44-7.4-5.64a56.72,56.72,0,0,0-8.64.27,6.84,6.84,0,0,0-3.33,1.57c-2.33,1.87-1.94,5.1.91,5.88,4.05,1.1,8.28,1.56,12.41,2.41a70.63,70.63,0,0,1,8.63,2.14c6.58,2.24,7.65,10,4.37,14.79a13.37,13.37,0,0,1-5.49,4.84,30.42,30.42,0,0,1-24.21-.4c-4.38-1.92-6.22-5.69-6.44-10.34,0-.38.05-1.07.18-1.09a32.48,32.48,0,0,1,5.36-.68c.53,0,1.47,1,1.53,1.6.41,4,3,5.7,6.47,5.93a101.7,101.7,0,0,0,12.58-.27,4.91,4.91,0,0,0,2.65-1.34c2.92-2.6,2.29-6.2-1.47-7.22-3.52-.95-7.23-1.23-10.83-1.93a69.83,69.83,0,0,1-9.33-2.17,8.5,8.5,0,0,1-6-7.9,10.34,10.34,0,0,1,5.11-10.12c3.7-2.37,7.9-2.82,12.18-2.77Z" transform="translate(-5.52 0)"/><path d="M553.2,641.49l30.52-33,7.42,7-37.53,40.83-23.3-22.16,7-7.37Z" transform="translate(-5.52 0)"/><path d="M689.29,395.68c0,3.92,0,7.83,0,11.75,0,5.75-4,9.94-9.37,9.93s-9.25-4.17-9.27-10q0-11.86,0-23.73c0-5.54,4.06-9.85,9.2-9.92s9.38,4.34,9.44,10C689.33,387.7,689.29,391.69,689.29,395.68Z" transform="translate(-5.52 0)"/><path d="M642.93,417.38c-4,0-8,0-12,0-5.63-.06-9.77-3.95-9.85-9.2s4.09-9.41,9.83-9.45c7.91-.07,15.81-.06,23.71,0,5.85,0,9.92,3.93,9.93,9.33s-4.08,9.26-9.91,9.33c-2,0-3.92,0-5.87,0Z" transform="translate(-5.52 0)"/><path d="M664.58,445.27c0,4.07,0,8.14,0,12.2a9.29,9.29,0,0,1-18.58.3q-.21-12.67,0-25.35a9.29,9.29,0,0,1,18.58.41v12.44Z" transform="translate(-5.52 0)"/><path d="M692.47,423.39c4,0,8,0,12,0,5.48.05,9.84,4.22,9.83,9.31a9.54,9.54,0,0,1-9.64,9.26q-12.33.12-24.66,0a9.28,9.28,0,1,1,0-18.56C684.17,423.34,688.32,423.39,692.47,423.39Z" transform="translate(-5.52 0)"/><path d="M181.72,391c3.89,0,6.78,3.62,5.95,7.83-1.17,6-2.57,11.94-3.86,17.91q-2.75,12.62-5.48,25.24a14.9,14.9,0,0,1-.72,2.47c-1.32,3.25-4.68,5.11-7.71,4.31a6.44,6.44,0,0,1-4.43-7.77c1.16-5.76,2.45-11.49,3.7-17.22q2.82-13,5.66-25.93C175.77,393.57,178.31,391.05,181.72,391Z" transform="translate(-5.52 0)"/><path d="M144.72,418.42l9.56,9.76c.49.5,1,1,1.46,1.52,2.48,2.89,2.61,6.52.33,8.93a6.62,6.62,0,0,1-9.33,0c-3.64-3.32-7.08-6.86-10.59-10.31-1.73-1.7-3.51-3.36-5.15-5.15-2.88-3.14-2.9-6.83.08-9.84q7.5-7.6,15.21-15c3-2.89,7.21-3,9.7-.47s2.24,6.45-.79,9.64C151.76,411.12,148.27,414.72,144.72,418.42Z" transform="translate(-5.52 0)"/><path d="M207.35,418.77c-3.76-3.89-7.06-7.33-10.4-10.73s-4-7.44-1.36-10.14,7-2.35,10.39,1c4.63,4.57,9.27,9.1,13.87,13.69,3.91,3.9,3.92,7.44,0,11.38-4.7,4.7-9.46,9.36-14.22,14a10.18,10.18,0,0,1-2.24,1.68,6.5,6.5,0,0,1-8.12-1.35,6.29,6.29,0,0,1,.32-8.21c3.13-3.38,6.48-6.56,9.77-9.8A20.16,20.16,0,0,1,207.35,418.77Z" transform="translate(-5.52 0)"/><path d="M334.85,158.32c-3,6.65-7.61,11.78-14.47,14.45-23,8.95-43.82-7.1-47.22-25.32-1.69-9,.8-16.85,7-23.67a28.29,28.29,0,0,0,1.13,23.27,35.93,35.93,0,0,0,16.8,16.78C308.34,168.94,323.55,170.41,334.85,158.32Z" transform="translate(-5.52 0)"/><path d="M16.08,293.83c-2.63,13.63,9.81,24.49,23.36,20.8,5.66-1.54,9.1-5.2,10.88-10.66.91-2.78,1.76-3.21,4.2-2.38-.56,8.66-7.67,15.71-17.22,17.05C25,320.38,15.11,313.15,12.49,301a36,36,0,0,1,.83-17.37,21.87,21.87,0,0,1,23.31-16c9.49.83,17.29,9,18.37,19.34.14,1.32.15,2.66.34,4,.32,2.19-.41,3-2.75,2.92-11.35-.12-22.7-.05-34.06-.05Zm35.25-3.49c.53-10.77-7.4-19.43-17.42-19.25-12.25.21-18.29,11-17.83,19.25Z" transform="translate(-5.52 0)"/><path d="M422.4,69.74l6.34-23.27.46-.09,4.66,21.28c1-2.14,1.77-3.74,2.69-5.68,1.31,6.14-.69,11.14-3.67,16.41-1.43-6.17-2.77-12-4.12-17.81h-.43Q425.14,72.27,422,84l-.49.07-5.95-25.65H415L411,85l-.45.05q-3.3-12.33-6.61-24.66h-.44c-1.33,5.57-2.67,11.14-4.1,17.14-2.85-5.92-5-11.5-3.7-18.27.89,2.21,1.67,4.14,2.72,6.76,1.66-6.93,3.16-13.21,4.65-19.49l.42,0,6.12,21.9.49,0q2.24-14.22,4.46-28.44h.47q3.42,14.86,6.83,29.75Z" transform="translate(-5.52 0)"/><path d="M534,662.65a24.54,24.54,0,0,1-4-.06,2.65,2.65,0,0,1-1.82-1.27c-2.19-5.18-10.36-5.17-13.45-2.34a4.43,4.43,0,0,0,1.06,7.54,63,63,0,0,0,7.14,2.25c1.87.57,3.78,1,5.58,1.77,3.72,1.52,6,4.25,6.1,8.4.15,4.33-1.43,7.94-5.35,10a18,18,0,0,1-17.35,0,9.38,9.38,0,0,1-5.23-8.77,35.37,35.37,0,0,1,4.12.05,2.13,2.13,0,0,1,1.42,1.18c1.88,5.26,11.85,5.73,15.09,2.09,2.17-2.42,1.88-5.89-1-7.37a44.22,44.22,0,0,0-6.85-2.34c-1.94-.62-4-1-5.82-1.8-3.78-1.56-6.06-4.31-6.21-8.57s1.62-7.68,5.47-9.62a16.31,16.31,0,0,1,15.77.13C531.88,655.66,533.72,658.47,534,662.65Z" transform="translate(-5.52 0)"/><path d="M57.37,317.41,65.09,307c3.32-4.45,6.6-8.94,10-13.32,1-1.29,1-2.09,0-3.39C69.88,283.7,64.75,277,59.59,270.27c-.23-.3-.44-.62-.67-.95,2.67-1.16,4.68-.57,6.64,2,4,5.32,8,10.67,11.93,16,.41.54.85,1.05,1.42,1.75,4.49-6,8.86-11.76,13.22-17.57,1.56-2.08,3.4-3.4,6.54-2.41-1.73,2.31-3.33,4.48-5,6.62-3.52,4.6-7,9.24-10.62,13.76-1.43,1.77-1.46,3.15-.06,5,5.31,6.88,10.5,13.86,15.73,20.8.46.61.9,1.24,1.36,1.89-2.65,1.1-4.52.59-6.34-1.88-4.13-5.61-8.2-11.27-12.3-16.9-.81-1.12-1.65-2.22-2.65-3.56-4.17,5.63-8.17,11-12.17,16.4-1.12,1.51-2.21,3-3.4,4.5A5,5,0,0,1,57.37,317.41Z" transform="translate(-5.52 0)"/><path d="M567,677.85H547.28a7.27,7.27,0,0,0,5.57,8.34,9.31,9.31,0,0,0,8.07-2.11c1.26-1.05,3.55-.85,5.88-1.31a9.08,9.08,0,0,1-4.68,6.46c-6,3.41-14.48,2-18.21-3-4.07-5.41-3.55-15.18,1.07-19.85,3.68-3.73,10.46-4.75,15.54-2.34C565.16,666.3,567.72,671.52,567,677.85Zm-19.63-4.38h13.86c-.46-4-3-6.22-6.91-6.19S547.81,669.61,547.4,673.47Z" transform="translate(-5.52 0)"/><path d="M634.28,568.33c3,.52,5.89,1.23,8.87,1.51a150.71,150.71,0,0,0,42.35-1.66,11.89,11.89,0,0,0,3.31-1.13,2.1,2.1,0,0,0,.75-1.71c-.17-1.5.52-1.67,1.64-1.25,2.23.83,2.84,3.22.93,4.59a22,22,0,0,1-6.26,3.05c-7.93,2.41-16.13,3.07-24.37,3.3a161.35,161.35,0,0,1-30.65-2.1c-2.16-.35-4.88-.61-5.19-3.19-.29-2.41,2.17-3.63,4.12-4.23a81.78,81.78,0,0,1,10.65-2.32c.67-.11,1.52.95,2.29,1.47a15.91,15.91,0,0,1-2.15,1c-2.1.61-4.24,1.14-6.36,1.71Zm32.55,4.14c-5,0-10,.24-15-.07-5.44-.33-10.87-1.06-16.28-1.83-1.91-.28-4.14-.72-4.13-3.81-1.43.88-2.63,1.64-3.84,2.39l.15,1C640.61,573.15,653.67,573.49,666.83,572.47Z" transform="translate(-5.52 0)"/><path d="M695.53,411.55c0-1.33-.06-2.66,0-4a9.28,9.28,0,0,1,9-8.84,9.73,9.73,0,0,1,9.73,8.43,9.33,9.33,0,0,1-7.5,9.91,66.11,66.11,0,0,1-10.06.24c-.39,0-1.06-.82-1.11-1.3a44,44,0,0,1,0-4.45Z" transform="translate(-5.52 0)"/><path d="M664.57,392.4c-3.78,0-7.23.28-10.62-.07a9.13,9.13,0,0,1-8-9.94,9.66,9.66,0,0,1,9.5-8.65,9.47,9.47,0,0,1,9,9.06C664.65,385.91,664.57,389,664.57,392.4Z" transform="translate(-5.52 0)"/><path d="M670.68,448.4a105,105,0,0,1,11,.08c4.58.48,8,5.2,7.61,9.75a9.31,9.31,0,0,1-9.42,8.59,9.11,9.11,0,0,1-9.12-8.33C670.53,455.23,670.68,452,670.68,448.4Z" transform="translate(-5.52 0)"/><path d="M639.61,423.45c0,3.78.25,7.3-.06,10.77-.42,4.6-4.85,8-9.61,7.75a9.32,9.32,0,0,1-8.83-9,9.19,9.19,0,0,1,8.21-9.5C632.65,423.25,636,423.45,639.61,423.45Z" transform="translate(-5.52 0)"/><path d="M675,490.72a18.8,18.8,0,0,1-4,9.94c-2.65,3.16-5.7,6-8.61,8.92-1.44,1.44-3.08,2.68-4.42,4.2-3.6,4.1-3.94,7.77-1.15,12.46,1.59,2.69,3.44,5.22,5,7.91a6.52,6.52,0,0,1,.32,2.47,6.34,6.34,0,0,1-2.16-.93c-3.13-3.27-6.48-6.4-9.18-10-4.2-5.63-3.8-10.05,1.15-15.07,2.8-2.83,6.06-5.18,9.07-7.8,1.83-1.59,3.68-3.17,5.35-4.92a13.83,13.83,0,0,0,3.84-12.73,6.45,6.45,0,0,1,.33-2.12c.66.4,1.65.65,1.92,1.23C673.45,486.37,674.17,488.57,675,490.72Zm-20.69,37,.66-.47c-3.24-7-2.5-11.09,3.07-16.57,1.28-1.25,2.69-2.38,4.07-3.53,3.68-3.08,7-6.44,9.11-10.86.57-1.22.92-2.55,1.37-3.83l-.52-.27c-2.31,7.15-8.3,10.95-13.62,15.38a68.87,68.87,0,0,0-6.42,6.13c-1.66,1.8-2.59,4.13-1.63,6.5C651.44,522.84,653,525.25,654.29,527.75Z" transform="translate(-5.52 0)"/><path d="M332.31,142.07c-4.07,6.5-9.46,9.25-16.41,8.88-9.54-.51-16.22-5.37-20-14-2.78-6.43-1.62-12.49,3.19-18.4-2.83,10.37.77,18.06,8.73,23.43C315.46,147.11,323.7,148.41,332.31,142.07Z" transform="translate(-5.52 0)"/><path d="M386.33,91V37.36c3.48.15,4.55,1.22,4.55,4.53V85.75C390.88,89.73,390.71,89.92,386.33,91Z" transform="translate(-5.52 0)"/><path d="M445.9,90.9c-4-.74-4.49-1.26-4.49-5.07V42.13c0-3.65.44-4.14,4.49-4.91Z" transform="translate(-5.52 0)"/><path d="M643,540.39c2.37.19,4.75.5,7.13.54A160.16,160.16,0,0,0,680,538.71a3.14,3.14,0,0,1,1.15-.16,9.45,9.45,0,0,1,1.54.74c-.29.42-.48,1.05-.87,1.23-2.33,1-4.64,2.39-7.1,2.87a107.15,107.15,0,0,1-36.17.89,8.41,8.41,0,0,1-2.92-.77c-.95-.54-2.27-1.42-2.34-2.24a3.42,3.42,0,0,1,2-2.48c3.81-1.35,7.72-2.44,11.61-3.52a9.42,9.42,0,0,1,3.26-.24c.56.05,1.06.66,1.58,1-.43.39-.8,1-1.31,1.14-2.49.84-5,1.57-7.54,2.34C642.94,539.81,643,540.1,643,540.39Zm.43,2.7c-1.54-1.29-4-1.13-3.36-4.21l-4.46,1.93,0,.71Z" transform="translate(-5.52 0)"/><path d="M190.53,7.62c1.83,9.14-7.66,20.49-16.29,21.16-1.47.11-2.32,0-2.35-1.85C171.76,17.65,181.12,7.84,190.53,7.62Z" transform="translate(-5.52 0)"/><path d="M661.43,580c-5.56-.56-12-1.15-18.46-1.89a14.94,14.94,0,0,1-4-1.31c-.35-.15-.47-.84-.7-1.29a3.75,3.75,0,0,1,1.2-.57,9.89,9.89,0,0,1,1.86.2c15,1.76,29.87,1.52,44.58-1.91,3.4-.79,6.52-2.78,9.79-4.17.43-.18,1.3-.27,1.39-.09a2.2,2.2,0,0,1,.23,1.65,7.85,7.85,0,0,1-5.17,4.8,78.26,78.26,0,0,1-12.24,3.06C674.12,579.3,668.23,579.48,661.43,580Z" transform="translate(-5.52 0)"/><path d="M683.91,503.47c-.51.42-1,.89-1.55,1.26-2.92,1.95-5.9,3.82-8.78,5.83a21.17,21.17,0,0,0-3.31,3c-2.65,2.86-2.82,5-.76,8.22.7,1.12,1.51,2.18,2.25,3.29,2.23,3.32,2.37,6.48-.16,9.51a39.43,39.43,0,0,1-6,5.17c-.34.27-1.08,0-1.64,0a4.19,4.19,0,0,1,.36-1.61c3.08-4.22,3.1-5.19,0-9.24-5.54-7.21-4.75-13.7,2.44-19.29,4.45-3.46,9.61-5.5,15-7.09a5.46,5.46,0,0,1,2.07.26Zm-11.8,5.2-.13-.2c-1.57,1.12-3.22,2.13-4.69,3.37-5.44,4.6-5.9,9.45-1.8,15.25a71.3,71.3,0,0,1,3.9,6.91c2.45-2.51,2.69-4.84.48-8.09-1-1.42-2-2.83-2.81-4.32a6.7,6.7,0,0,1,.64-8.1C669.06,511.8,670.63,510.27,672.11,508.67Z" transform="translate(-5.52 0)"/><path d="M648.09,546.54c-.61.89-1,1.45-1.54,2.24a17.32,17.32,0,0,0,2.37.61,63.85,63.85,0,0,0,22.19-.78c3.21-.75,5.15.95,7.49,2.14a1.4,1.4,0,0,1,.5.91,3.81,3.81,0,0,1-1.61,1.12c-5.62.93-11.24,2.22-16.9,2.52-4.79.26-9.65-.56-14.46-1.1a9.84,9.84,0,0,1-3.86-1.59c-.71-.45-1.66-1.68-1.47-2.15a6.93,6.93,0,0,1,2.42-3.16C644.5,546.47,646,545.27,648.09,546.54Zm26.58,5,.05-1a23,23,0,0,0-3,.18,74.18,74.18,0,0,1-22.89.66c-1.64-.22-3.18-1.18-4.77-1.8,0-.27-.1-.53-.16-.8L642.51,550l.42,1C653.42,554.87,664,553.49,674.67,551.53Z" transform="translate(-5.52 0)"/><path d="M649.79,558.6a45.35,45.35,0,0,0,18.6-.07c3.85-.9,6.23,1.49,9.69,3a12.63,12.63,0,0,1-2.22,1.5c-8.89,3.3-18,4.05-27.14,1.44a11.86,11.86,0,0,1-3.93-2c-1.78-1.34-1.7-3.15.08-4.5a10.69,10.69,0,0,1,2.68-1.4C649.69,555.78,650.13,556.18,649.79,558.6Zm-4.47,1.29c4.25,4.74,22,5.48,27.83,1.26a13,13,0,0,0-4.13-.5c-2.49.17-5,.83-7.46.79-4.85-.08-9.86.72-14.37-2C646.87,559.21,646.16,559.65,645.32,559.89Z" transform="translate(-5.52 0)"/><path d="M688.37,533.7c3.9.54,6.89,1.94,8.49,5.48s.11,6.3-2.14,8.77c-3.39,3.73-8,5.36-12.69,6.67-.42.11-1-.23-1.46-.36.2-.52.25-1.24.63-1.54,1.23-1,2.69-1.61,3.85-2.63a43.92,43.92,0,0,0,5.61-5.55,4,4,0,0,0-.08-5.23,4.8,4.8,0,0,0-5.21-1.83,5,5,0,0,1-1.36.33c-.48,0-1.2-.21-1.35-.54a1.41,1.41,0,0,1,.46-1.35C684.83,535.1,686.61,534.43,688.37,533.7Zm2,15c3.33-1.63,5.35-4.7,4.95-7.57-.32-2.26-1.64-3.63-4.1-4.5C694.53,541.16,694.4,542.47,690.32,548.74Z" transform="translate(-5.52 0)"/><path d="M65.46,448.56a35.64,35.64,0,0,0,1.36,6.17c.73,1.8.9,3.2-.83,4.24a2.57,2.57,0,0,1-4-1.45c-1-3-1.55-6.12-2.29-9.2l-.06.07,5.86.2Z" transform="translate(-5.52 0)"/><path d="M650,67.23V51.58h3.11c4.3.05,8.61,0,12.91.19,3.83.14,6.63,2.28,7.38,5.41.93,3.81-.41,7.26-3.67,9.05a7.48,7.48,0,0,1-3.33,1C661,67.29,655.6,67.23,650,67.23Z" transform="translate(-5.52 0)"/><path d="M650.19,45.47V31.94c5.61,0,11.07-.25,16.5.09,3.26.21,4.78,2.69,4.74,6.18,0,4-2.13,6.9-6,7.17C660.43,45.74,655.35,45.47,650.19,45.47Z" transform="translate(-5.52 0)"/><path d="M331,575.31c0-4.51,0-8.71,0-12.92,0-.38.7-1,1.16-1.08a6.53,6.53,0,0,1,7.84,4.66c1,4.57-1.07,8.29-5.11,9.11A30.64,30.64,0,0,1,331,575.31Z" transform="translate(-5.52 0)"/><path d="M417.68,549.44a11.81,11.81,0,1,1,11.88-11.76A11.87,11.87,0,0,1,417.68,549.44Z" transform="translate(-5.52 0)"/><path d="M304.71,687.71h-8.59v-3.87H283.49v3.82h-8.75c.22-2.46,0-5,.73-7.3,3.26-10.86,6.8-21.63,10.12-32.46.58-1.89,1.41-2.6,3.43-2.51,4.08.16,4.12,0,5.36,4,3.29,10.35,6.64,20.69,9.74,31.1C304.79,682.7,304.53,685.21,304.71,687.71ZM293.56,675c-1.22-3.9-2.39-7.61-3.56-11.33l-.45.05c-1.15,3.69-2.31,7.39-3.53,11.28Z" transform="translate(-5.52 0)"/><path d="M317.19,662.61v25.11h-8.27V662.61Z" transform="translate(-5.52 0)"/><path d="M317.21,645.63v8.09H309v-8.09Z" transform="translate(-5.52 0)"/><path d="M54.26,79.85H45.57L45.33,76a7.85,7.85,0,0,0-1.21-.19H32.88l-.24,4H24.09c.23-2.49,0-5.12.75-7.49,3.22-10.77,6.73-21.46,10-32.22.58-1.89,1.4-2.59,3.42-2.48,5.1.29,3.8-.89,5.43,4.14,3.2,9.88,6.37,19.78,9.34,29.74C53.84,74.07,53.86,76.9,54.26,79.85ZM42.89,67.18,39.3,55.83l-.5.09L35.28,67.18Z" transform="translate(-5.52 0)"/><path d="M67.38,67.3c.33,3.56,1,4.2,3.85,4.23,2.57,0,5.15,0,7.92,0v8.21c-3.61,0-7.24.43-10.73-.1-4.6-.7-7.75-3.79-9.11-8.22a28.64,28.64,0,0,1-.1-16.9c1.53-5,5.25-7.75,10.33-8.32s9.09,1.47,11.26,6a39.46,39.46,0,0,1,2.68,9.61c.39,2-3.48,5.48-5.67,5.49C74.38,67.32,71,67.3,67.38,67.3Zm6.76-8.64c-.41-3-1.69-4.25-4.08-4.07-2.06.16-2.76,1.16-2.77,4.07Z" transform="translate(-5.52 0)"/><path d="M392.65,293.74v16.69c-2.55,0-4.94.05-7.32-.06-.34,0-.93-.82-.93-1.26,0-13.3,0-26.59,0-40.53,5.55.3,11,0,16.19,1,5.83,1.16,9.27,7.14,8.64,13.1a12.31,12.31,0,0,1-11.31,11C396.26,293.85,394.63,293.74,392.65,293.74Zm.12-8.24c2.71-.07,5.46.77,7.41-1.79a3.7,3.7,0,0,0,.11-4.58c-1.93-2.85-4.8-1.71-7.52-1.88Z" transform="translate(-5.52 0)"/><path d="M413.78,300.43c2.26,0,4.58,0,6.9,0a1.2,1.2,0,0,1,.94.47c.73,1.54,2,1.46,3.17.9.56-.28,1.18-1.81,1-2A5.56,5.56,0,0,0,423,298a10.45,10.45,0,0,1-9.45-10.7,10.31,10.31,0,0,1,9.81-10.06c5.93-.23,10.16,3.4,10.9,9.88-3.07-.68-6.2,1.72-9.1-1.16-.41-.4-1.68-.26-2.37,0a2,2,0,0,0-.93,1.67,3.19,3.19,0,0,0,1.56,1.79,13.27,13.27,0,0,0,2.75.5,10.41,10.41,0,0,1,2.61,19.35c-4,2-9.61,1.32-12.53-1.55A8.64,8.64,0,0,1,413.78,300.43Z" transform="translate(-5.52 0)"/><path d="M245.4,55.33h21.91v7.12H245.4Z" transform="translate(-5.52 0)"/><path d="M311.79,55.17V47.85c2.23,0,4.23-.09,6.22.07.43,0,1,1,1.12,1.55.26,1.82-.34,4.25.64,5.33s3.38.22,5.14.45c.62.09,1.58.78,1.63,1.27.19,1.91.08,3.86.08,6h-7.25v7.29h-7.46V62.64h-7.33V55.17Z" transform="translate(-5.52 0)"/><path d="M196.62,146.89l-12.88,7.48c-3.3-3.83-7.36-6-12.55-5.38a12.59,12.59,0,0,0-8.24,4.5,13,13,0,0,0,.82,17.69c5.52,5.43,12.52,4.89,20.08-1.67l6.39,3.7,6.27,3.62c-3.95,7.88-15.65,15.06-28.31,12.95a28.26,28.26,0,0,1-3.15-55C177,131.25,190.82,136.49,196.62,146.89ZM190,145.68c-6.06-7.12-16.79-9.59-25.75-6.07a23.9,23.9,0,0,0,1.92,45.22c8.76,2.54,19.3-.44,23.71-6.82a33.91,33.91,0,0,1-3.41-2c-1.53-1.16-2.67-1-4.26.16-5.66,4-11.72,4.2-17.72.89a17.24,17.24,0,0,1-6.31-24.36C163.6,144,174.39,142,183,148.05a2.55,2.55,0,0,0,2,.53C186.67,147.76,188.29,146.68,190,145.68Z" transform="translate(-5.52 0)"/><path d="M190.36,155.59c4-.51,4-.51,4.39,3.94.62.06,1.29.13,1.95.18s1.37.09,2.17.15v4l-4.15.38-.22,4h-4.09l-.29-4-4-.22v-4.14l4-.23Z" transform="translate(-5.52 0)"/><path d="M79.57,556.05a27.58,27.58,0,1,1,0-29.44l-13.23,7.72A10.15,10.15,0,0,0,64.9,532,12.69,12.69,0,0,0,47,550c4.76,5.09,12.74,5.62,17.69.79,1.9-1.86,3.1-1.76,5.08-.48C72.88,552.32,76.19,554.09,79.57,556.05Zm-6.63,1.08a37.46,37.46,0,0,1-3.37-2c-1.45-1.08-2.54-1-4.1.1a15.34,15.34,0,0,1-16.64,1.31,16.86,16.86,0,0,1-7-24C47,524,57.67,521.89,66.1,527.78a2.58,2.58,0,0,0,2,.52c1.67-.78,3.23-1.82,4.84-2.77-7.31-9.41-23-10-32.3-1.49a23.32,23.32,0,0,0-.19,34.42C49.79,567.15,65.6,566.58,72.94,557.13Z" transform="translate(-5.52 0)"/><path d="M94.42,535.09V539l-3.86.35c-.69,3.7-.69,3.7,3.76,4.34v3.84l-3.92.29-.25,3.72c-3.77,1-3.87.86-4.3-3.64H81.9l-.24,3.62c-3.48,1-3.57.87-4.44-3.7l-3.77-.28v-3.9l3.94-.39v-3.9L73.46,539v-3.93l3.93-.32.27-3.92h4l.22,3.85h4l.25-3.83h4c.1,1.34.18,2.56.28,3.91ZM82.24,539l-.72.7c.31,1.24.29,2.78,1,3.6.47.5,2.44.29,3.14-.31s.64-2.56.15-3C85,539.27,83.48,539.25,82.24,539Z" transform="translate(-5.52 0)"/><path d="M558.9,421.83c-3.36.56-6.73,1.14-10.1,1.67-2.69.43-3.48-.2-3.49-2.84,0-10.64,0-21.29,0-31.93,0-2,.73-3,2.88-3,7.44.05,14.87,0,22.31,0,2.48,0,3,.59,2.81,3.16-.13,2-.39,4.05-.49,6.08s-1.07,2.77-3,2.75c-4-.05-8.1,0-12.29,0v11.66c3.57-.48,7-1,10.49-1.42,3-.37,3.64.32,3.38,3.33-.63,7.25-1.29,14.5-1.83,21.75-.14,1.91-.81,3-2.71,3.53-6,1.57-11.92,3.25-17.89,4.84-2.72.73-3.61,0-3.64-2.76,0-2.19.14-4.4,0-6.57-.19-2.38.89-3.4,3.06-3.89,2.75-.62,5.41-1.61,8.17-2.14C558.94,425.55,559.46,424.23,558.9,421.83Zm8.37-9.74c-3.84.53-7.24,1-10.65,1.47-2.44.32-3.26-.32-3.28-2.66,0-4.78,0-9.55,0-14.32,0-2.13,1-2.93,3-2.88,3.13.07,6.26,0,9.39,0,3.5,0,3.56-.06,3.14-3.88H549.57v29.49c3.69-.64,7.15-1.26,10.61-1.82,2.4-.39,3.24.36,3.13,2.73-.09,1.88-.31,3.75-.34,5.62a3,3,0,0,1-2.69,3.25c-3.19.79-6.36,1.67-9.49,2.67a2.5,2.5,0,0,0-1.36,1.67,19.26,19.26,0,0,0-.07,3.69c5.2-1.43,10.1-2.75,15-4.18a2,2,0,0,0,1.22-1.38C566.16,425.21,566.68,418.84,567.27,412.09Z" transform="translate(-5.52 0)"/><path d="M529.29,425v-21c0-5.08,0-10.17,0-15.25,0-2.07.8-3.05,2.91-3,1.88.06,3.76,0,5.64,0,3.14,0,3.54.4,3.54,3.49q0,19.13,0,38.25c0,3.76,0,7.51,0,11.27,0,2.64-1,3.38-3.5,2.69-6.64-1.81-13.25-3.7-19.91-5.45-2-.54-2.8-1.61-2.69-3.68.14-2.58,0-5.17,0-7.75.05-2.39,1-3.1,3.28-2.5C522.05,423,525.5,423.94,529.29,425Zm4.06-35.17v36.24c0,3.42-.78,4-4.12,3.09l-9.93-2.72c0,1.76-.09,3.24,0,4.7a1.81,1.81,0,0,0,1,1.26c5.54,1.6,11.1,3.12,16.71,4.68V389.81Z" transform="translate(-5.52 0)"/></svg>