<svg version="1.1" viewBox="0.0 0.0 512.0 512.0" fill="none" stroke="none" stroke-linecap="square" stroke-miterlimit="10" xmlns:xlink="http://www.w3.org/1999/xlink" xmlns="http://www.w3.org/2000/svg"><clipPath id="p.0"><path d="m0 0l512.0 0l0 512.0l-512.0 0l0 -512.0z" clip-rule="nonzero"/></clipPath><g clip-path="url(#p.0)"><path fill="#000000" fill-opacity="0.0" d="m0 0l512.0 0l0 512.0l-512.0 0z" fill-rule="evenodd"/><path fill="#c52233" d="m345.27298 28.139664l0 0c0 -15.348315 12.442261 -27.790583 27.790558 -27.790583l111.159 0l0 0c7.370514 0 14.439178 2.927928 19.65091 8.139673c5.2117615 5.2117453 8.139679 12.280388 8.139679 19.65091l0 457.04877c0 15.348328 -12.442261 27.790588 -27.790588 27.790588l-111.159 0c-15.348297 0 -27.790558 -12.442261 -27.790558 -27.790588z" fill-rule="evenodd"/><path fill="#000000" d="m0 17.15144l0 0c0 -9.279686 7.522672 -16.802359 16.802359 -16.802359l288.03308 0c4.456238 0 8.730011 1.7702433 11.8810425 4.9212966c3.151062 3.1510534 4.921295 7.424799 4.921295 11.881062l0 478.3953c0 9.279694 -7.5226746 16.802338 -16.802338 16.802338l-288.03308 0c-9.279686 0 -16.802359 -7.522644 -16.802359 -16.802338z" fill-rule="evenodd"/><path stroke="#000000" stroke-width="1.0" stroke-linejoin="round" stroke-linecap="butt" d="m0 17.15144l0 0c0 -9.279686 7.522672 -16.802359 16.802359 -16.802359l288.03308 0c4.456238 0 8.730011 1.7702433 11.8810425 4.9212966c3.151062 3.1510534 4.921295 7.424799 4.921295 11.881062l0 478.3953c0 9.279694 -7.5226746 16.802338 -16.802338 16.802338l-288.03308 0c-9.279686 0 -16.802359 -7.522644 -16.802359 -16.802338z" fill-rule="evenodd"/><path fill="#c52233" d="m256.0 512.34906l0 -512.6299l176.97638 0l0 512.6299z" fill-rule="evenodd"/><path fill="#000000" fill-opacity="0.0" d="m0 0l512.0 0l0 512.0l-512.0 0z" fill-rule="evenodd"/><path fill="#ffffff" d="m62.478607 376.0l0 -236.96875l72.921875 0q31.25 0 55.90625 14.078125q24.65625 14.078125 38.484375 40.03125q13.84375 25.953125 13.84375 59.0l0 10.90625q0 33.03125 -13.59375 58.75q-13.59375 25.71875 -38.328125 39.890625q-24.734375 14.15625 -55.828125 14.3125l-73.40625 0zm48.828125 -197.42188l0 158.20312l23.59375 0q28.65625 0 43.78125 -18.71875q15.140625 -18.71875 15.46875 -53.546875l0 -12.53125q0 -36.140625 -14.984375 -54.765625q-14.96875 -18.640625 -43.765625 -18.640625l-24.09375 0zm167.80261 197.42188l0 -236.96875l83.015625 0q43.125 0 65.421875 16.515625q22.296875 16.515625 22.296875 48.421875q0 17.40625 -8.953125 30.671875q-8.953125 13.265625 -24.90625 19.453125q18.234375 4.5625 28.734375 18.40625q10.5 13.828125 10.5 33.84375q0 34.171875 -21.8125 51.75q-21.8125 17.578125 -62.171875 17.90625l-92.125 0zm48.828125 -103.1875l0 63.96875l41.828125 0q17.25 0 26.9375 -8.21875q9.6875 -8.21875 9.6875 -22.71875q0 -32.546875 -33.6875 -33.03125l-44.765625 0zm0 -34.5l36.140625 0q36.9375 -0.65625 36.9375 -29.46875q0 -16.109375 -9.359375 -23.1875q-9.359375 -7.078125 -29.53125 -7.078125l-34.1875 0l0 59.734375z" fill-rule="nonzero"/></g></svg>