<svg id="Layer_1" data-name="Layer 1" xmlns="http://www.w3.org/2000/svg" viewBox="0 0 700 700"><g id="java"><path d="M428.49,27.64c1.39.69,2.83,1.3,4.17,2.08,5.25,3.06,10.46,6.18,15.69,9.27A7,7,0,0,1,452,45.44q0,10.35,0,20.71a7,7,0,0,1-3.66,6.45c-5.74,3.41-11.47,6.84-17.24,10.21a7,7,0,0,1-7.42,0c-5.81-3.38-11.59-6.83-17.37-10.26a7.07,7.07,0,0,1-3.64-6.47V45.53a7.06,7.06,0,0,1,3.65-6.47q8.73-5.18,17.48-10.34c.73-.43,1.55-.72,2.33-1.08Zm22,16A5.56,5.56,0,0,0,448,40.23Q439.11,35,430.25,29.75a5.38,5.38,0,0,0-5.81,0Q415.7,34.94,407,40.13a5.78,5.78,0,0,0-3,5.27q0,10.43,0,20.85a5.63,5.63,0,0,0,2.83,5.12q8.94,5.35,18,10.59a12.26,12.26,0,0,0,2.86.84,17.71,17.71,0,0,1-.78-3.49c-.07-6.48,0-13-.06-19.42a5.77,5.77,0,0,1,2.92-5.42q8.76-5.41,17.53-10.8A2.75,2.75,0,0,1,450.52,43.68Zm-19.21,29.4h2.05l.17,1.81c.57-.64,1.24-1.07,1.21-1.45a3.72,3.72,0,0,1,1.05-2.4,7.63,7.63,0,0,0,1.08-2.46c.53-2.2-.22-3.12-2.48-3.36-.46,0-1.18-.33-1.25-.63a2,2,0,0,1,.43-1.51,2.16,2.16,0,0,1,1.42-.79c1.49,0,1.53-.89,1.52-2h-1.68l-.19-1.9c-.57.69-1.2,1.12-1.19,1.54a3.45,3.45,0,0,1-1,2.29,6,6,0,0,0-1.07,2.33c-.46,2,.24,2.89,2.33,3.06,1.45.11,2,1,1.16,2.17A3,3,0,0,1,433,71C431.51,71,431.34,71.78,431.31,73.08Zm8.14-.41c1.5-.91,2.95-1.73,4.31-2.69.33-.23.34-.91.5-1.38l-.31-.2c-1.29.77-2.55,1.59-3.86,2.3C439.26,71.14,439.18,71.73,439.45,72.67Z" transform="translate(-32.43 -27.64)"/><path d="M58.46,387.17H80.08c2.85,0,4.17,1.31,4.18,4.13v35.95c0,2.8-1.37,4.19-4.16,4.19-14.46,0-28.92,0-43.38,0a4.23,4.23,0,0,1-4.28-4.33q.09-17.91,0-35.82a4.26,4.26,0,0,1,4.15-4.19C43.87,387.25,51.16,387.17,58.46,387.17ZM39.81,398.42l7.5,7.32-7.09,7.11,3.38,3.65,10.78-10.83L43.58,394.8Zm15.08,18.15H69.41v-3.49H54.89Z" transform="translate(-32.43 -27.64)"/><path d="M564.61,149.73l-.59.12c-1.51.26-3.21-.61-4.55.48s-2.25,2.25-3.39,3.36c-2.6,2.52-5.26,5-7.83,7.55-2.06,2-4,4.23-6,6.29-1.56,1.58-3.23,3-4.82,4.59s-3.25,3.33-4.94,4.92c-1,.94-1.73,2.29-3.42,2.24a3.2,3.2,0,0,1-3.38-3.35c0-5.08,0-10.16,0-15.24a2.75,2.75,0,0,1,.91-2.16c3-2.86,5.87-5.77,8.74-8.6-2.4-.12-4.73-.11-7-.4s-2.82-1.52-2.6-4.24c.1-1.31,1.64-2.48,3.28-2.48,5,0,10,0,15,0a3.23,3.23,0,0,1,3,2.05,3.41,3.41,0,0,1-.68,3.69c-4.29,4.3-8.57,8.62-12.9,12.88a2.84,2.84,0,0,0-1,2.39c.07,1.06,0,2.13,0,3.2l.37.26c1.75-1.83,3.47-3.69,5.26-5.49,5.75-5.79,11.54-11.55,17.29-17.35a5.19,5.19,0,0,1,4-1.65c4.52.09,9,0,13.55,0,2,0,3.08.62,3.74,2.35.58,1.54-.11,2.76-1.18,3.83l-17.4,17.41-19.44,19.43c-.27.27-.51.55-1,1,1.72,0,3.18,0,4.63,0,.32,0,.67-.35.93-.61q13.83-13.8,27.64-27.63a3.36,3.36,0,0,1,3.65-.88,3.59,3.59,0,0,1,2.32,3.37c0,4.69-.07,9.38,0,14.07a4.65,4.65,0,0,1-1.46,3.56c-1.63,1.65-3.34,3.21-5,4.8-1.15,1.08-2.32,2.15-3.49,3.23,2.63.16,5,.2,7.32.47,1.63.19,2.79,2.05,2.62,3.78a3.42,3.42,0,0,1-3.25,2.93c-5.08,0-10.17,0-15.25,0a3.18,3.18,0,0,1-3.11-2.28,3.27,3.27,0,0,1,1-3.63q6.33-6.39,12.71-12.72a2.53,2.53,0,0,0,.89-2.15c-.08-1.11,0-2.24,0-3.7-.58.56-1,.92-1.34,1.3q-10.92,10.92-21.82,21.85a4.19,4.19,0,0,1-3.31,1.38c-4.73-.08-9.47-.07-14.2,0a3.11,3.11,0,0,1-3.28-2,3.79,3.79,0,0,1,.76-4.1c6.59-6.54,13.14-13.14,19.71-19.71q8.47-8.48,17-16.93c.47-.47,1-.88,1.5-1.32Z" transform="translate(-32.43 -27.64)"/><path d="M639.11,269.74,655.45,267c5.18-.87,10.36-1.7,15.54-2.62a3.07,3.07,0,0,1,2.81.79q7.2,6.1,14.51,12.1a2.16,2.16,0,0,1,.93,2.09q-1.32,14.34-2.57,28.68a1.33,1.33,0,0,1-1.14,1.31q-17.12,5.24-34.22,10.53c-1,.32-1.36,0-1.69-.86-2.52-6.8-5.08-13.59-7.61-20.38a6.06,6.06,0,0,1-.37-1.51q-1.27-12.57-2.52-25.15C639.05,271.27,639.11,270.54,639.11,269.74Zm6.36,9.37c.41-.05.62-.06.82-.1,5.48-1,11-1.73,16.4-3,3.06-.69,5.48-.45,7.39,2.16s4.29,2.9,7.17,2a37.32,37.32,0,0,1,4.64-.8,3.69,3.69,0,0,0-.34-.49c-3.34-2.78-6.66-5.58-10-8.32a2.19,2.19,0,0,0-1.52-.32c-5.57.88-11.14,1.8-16.71,2.72-2.72.45-5.45.93-8.26,1.41C645.18,276,645.31,277.5,645.47,279.11Zm.88,7c.6,1.42,1.15,2.63,1.63,3.88a.93.93,0,0,0,1.27.68,48.31,48.31,0,0,0,4.84-1c2.72-.92,4.92-.61,6.63,1.9a1.74,1.74,0,0,0,1.53.41c2.38-.51,4.72-1.14,7.08-1.73l3.17-.79c-2.31-2.32-4.43-4.49-6.61-6.59a1.79,1.79,0,0,0-1.3-.23c-1.28.19-2.56.47-3.83.72Zm15,17.35c-1.39-1.8-2.63-3.41-3.9-5a1.13,1.13,0,0,0-.84-.41c-2.32.51-4.61,1.08-7.06,1.66,1.07,1.85,2,3.55,3,5.2a1.11,1.11,0,0,0,.94.38C656.1,304.7,658.62,304.08,661.4,303.42Z" transform="translate(-32.43 -27.64)"/><path d="M154.79,381h46c-.12,2.1-.22,4-.35,5.88q-1.16,17.6-2.34,35.19c-.14,2.07-.26,4.15-.51,6.22a1.64,1.64,0,0,1-.91,1.16q-9.31,2.86-18.69,5.58a2.28,2.28,0,0,1-1.25-.14c-6-1.84-11.92-3.72-17.88-5.55a1.21,1.21,0,0,1-1-1.27q-.86-13.3-1.77-26.62-.65-9.6-1.3-19.21C154.76,381.84,154.79,381.42,154.79,381Zm30.41,27.87c-.29,2.48-.59,4.75-.79,7a1.21,1.21,0,0,1-1,1.23c-5.46,1.6-5.45,1.61-10.88-.15a1.17,1.17,0,0,0-.25-.07c-1.1-.17-1.52-.76-1.38-1.9a27.17,27.17,0,0,0,0-3h-6c.19,2.79.42,5.5.55,8.22a1.24,1.24,0,0,0,1.1,1.3c3.46,1,6.9,2.05,10.36,3a2.87,2.87,0,0,0,1.51,0c3.45-1,6.87-2.15,10.31-3.19a1.34,1.34,0,0,0,1.07-1.38c.73-7.46,1.51-14.93,2.27-22.39.2-2,.37-4,.57-6.24H163c.08,1.36.23,2.7.21,4,0,1.09.41,1.36,1.46,1.35,6.64-.1,13.29-.12,19.93-.16.53,0,1.07.09,1.69.15-.28,2-.53,3.83-.81,5.88H171.13v6.22Z" transform="translate(-32.43 -27.64)"/><path d="M325.33,149.82l-7,7.64a50.21,50.21,0,0,0-6.35-3.05,14.14,14.14,0,0,0-13,2.27,14.72,14.72,0,0,0-6.24,9.91,15.32,15.32,0,0,0,3.91,13.48,14.13,14.13,0,0,0,8.5,4.78c7,1,14-1.4,16.33-8.63a9.2,9.2,0,0,0,.22-1.17H307.6V164.67h25.11a37.73,37.73,0,0,1-.41,12.4,24.59,24.59,0,0,1-6.2,11.58,20.6,20.6,0,0,1-11,6.21c-5.44,1.09-11,1.32-16.31-.68a26.68,26.68,0,0,1-12.06-9,24.84,24.84,0,0,1-5.08-12.51,25.45,25.45,0,0,1,3.51-16.65,26,26,0,0,1,13.95-11.42,28.73,28.73,0,0,1,6.76-1.34,24.63,24.63,0,0,1,10.95,1.34A27.41,27.41,0,0,1,325.33,149.82Z" transform="translate(-32.43 -27.64)"/><path d="M542.82,621.05c2,2,4,4,5.9,5.94a1.2,1.2,0,0,1,.18.92,4.31,4.31,0,0,0,1.83,4.67,1.82,1.82,0,0,1,.64,1.24q.06,6.72,0,13.42a2,2,0,0,1-.71,1.34,4.26,4.26,0,0,0-.85,6.29,4.23,4.23,0,1,0,5.73-6.16,1.88,1.88,0,0,1-.65-1.13c0-4.68,0-9.37,0-14.42.8.78,1.39,1.35,2,1.94.74.73,1.47,1.48,2.22,2.2.89.87,1.64,1.58,1.37,3.17-.4,2.27,1.85,4.35,4.18,4.33a4.35,4.35,0,0,0,4.22-4.41,4.24,4.24,0,0,0-4.67-4,1.82,1.82,0,0,1-1.81-.61c-1.5-1.57-3.09-3-4.57-4.64a2.26,2.26,0,0,1-.55-1.56,4.28,4.28,0,0,0-4.82-4.77,3.57,3.57,0,0,1-1.19-.22c-.15-.05-.25-.24-.37-.36l-5.51-5.43c1.87-1.95,3.56-3.88,5.44-5.6,1.34-1.22,3.33-.9,4.81.55,2.27,2.22,4.49,4.48,6.74,6.72L578.89,637c2.42,2.42,2.41,4.14,0,6.55l-22.76,22.75c-2.31,2.31-4.06,2.33-6.34,0l-23-23c-2.24-2.24-2.25-4.06,0-6.27L542,621.81C542.23,621.57,542.49,621.35,542.82,621.05Z" transform="translate(-32.43 -27.64)"/><path d="M559,544c1-.2,1.92-.36,2.79-.55,6.37-1.39,9.7-5.45,10-12,.16-3.24-.37-6.21-2.48-8.79a1.5,1.5,0,0,1-.14-1.15,11.88,11.88,0,0,0-.21-5.92c-.24-.87-.74-1.23-1.49-1-2,.75-3.9,1.63-5.87,2.39a3.27,3.27,0,0,1-1.77.29,27.76,27.76,0,0,0-12.4,0,3,3,0,0,1-1.66-.26c-2-.77-3.89-1.65-5.86-2.41-.84-.32-1.35.09-1.59,1a12.07,12.07,0,0,0-.19,5.79,1.9,1.9,0,0,1-.26,1.38,13.14,13.14,0,0,0,8.67,20.85l1.53.25c-.46,1.15-.87,2.28-1.36,3.36a1.62,1.62,0,0,1-.78.75,5.89,5.89,0,0,1-7.35-2.2,12.72,12.72,0,0,0-2.24-2.5,3.43,3.43,0,0,0-3.86-.42,6.08,6.08,0,0,0,1.09,1.18,8.29,8.29,0,0,1,3.23,4.14,5.79,5.79,0,0,0,5.56,3.78c1.33.07,2.66,0,4.15,0,0,1.65,0,3.37,0,5.1a1.17,1.17,0,0,1-1.36,1.24,5.46,5.46,0,0,1-1.51-.29,28.49,28.49,0,1,1,20.1,0c-2.27.88-3.08.32-3.06-2.08,0-1.87,0-3.73.06-5.6C560.81,548.14,560.7,546,559,544Z" transform="translate(-32.43 -27.64)"/><path d="M188.42,645.36l9.92,14.18c-.31.21-.6.38-.88.59-2.67,1.94-5.35,3.85-8,5.84-.77.58-1.18.5-1.76-.28-2.92-3.94-5.9-7.83-8.86-11.74-.26-.34-.54-.64-.91-1.08-.4.47-.72.81-1,1.17-2.84,3.74-5.69,7.46-8.48,11.22-.62.83-1.05.9-1.86.26-2.52-2-5.08-3.94-7.66-5.85-.75-.56-.75-1-.22-1.68,2.8-3.76,5.55-7.56,8.31-11.35.27-.37.53-.77.9-1.31-.55-.25-1-.47-1.37-.62-4.41-1.59-8.81-3.2-13.24-4.73-1.14-.39-1.48-.87-1-2.07,1-2.86,1.93-5.76,2.82-8.66.31-1,.73-1.29,1.78-.93,4.36,1.46,8.75,2.83,13.12,4.26,1.82.6,1.82.63,1.82-1.24,0-4.47.05-9,0-13.42,0-1.36.41-1.68,1.7-1.64,3.17.09,6.34.08,9.51,0,1.23,0,1.65.29,1.63,1.58-.07,4.56,0,9.12,0,13.68,0,.47,0,.94.08,1.58l6.83-2c2.66-.8,5.32-1.59,8-2.44.89-.28,1.33-.07,1.62.85q1.42,4.53,3,9c.35,1,0,1.44-.9,1.74q-6.72,2.25-13.44,4.54C189.35,644.93,189,645.12,188.42,645.36Z" transform="translate(-32.43 -27.64)"/><path d="M533.79,307.7,561.38,311V273l-11.11,2.57c-2.07.48-4.13,1-6.22,1.43-1.11.2-1.45.64-1.44,1.78,0,7.69,0,15.38,0,23.06a1.66,1.66,0,0,1-1.19,1.83c-2.92,1.21-5.81,2.51-8.84,3.83,0-.39-.1-.7-.1-1,0-10.17,0-20.33,0-30.49a1.37,1.37,0,0,1,1-1.53c9-3.27,17.91-6.61,26.88-9.87a3.8,3.8,0,0,1,2.24,0c4.44,1.35,8.85,2.81,13.29,4.18a1.43,1.43,0,0,1,1.17,1.65q0,20.79,0,41.57c0,.9-.18,1.36-1.15,1.63-4.51,1.29-9,2.69-13.48,4a3.22,3.22,0,0,1-1.87,0q-13.14-4.64-26.24-9.37a6.49,6.49,0,0,1-.64-.33Z" transform="translate(-32.43 -27.64)"/><path d="M431.28,536.65v1.49c0,4.56,0,9.12,0,13.68a8.68,8.68,0,0,1-8,8.68A8.62,8.62,0,0,1,420,543.69l1.34-.41c-4.82-1.6-7.24-4.43-7.39-8.47s2.15-6.74,7-8.7a27.39,27.39,0,0,1-4.1-2.45,8.31,8.31,0,0,1-2.32-9.26,8.55,8.55,0,0,1,7.75-5.64q9-.12,18.1,0a8.6,8.6,0,0,1,8.32,7.71,8.7,8.7,0,0,1-6.3,9.2l-1.23.31a9.38,9.38,0,0,1,6,3.81,8.37,8.37,0,0,1,1.31,6.7,8.73,8.73,0,0,1-8.09,6.77C436.41,543.53,433.19,541.13,431.28,536.65Zm6.56-10.56h-6.5v6.48A9.83,9.83,0,0,1,437.84,526.09Z" transform="translate(-32.43 -27.64)"/><path d="M677.72,659.74c1.48-5.49,2.88-10.68,4.39-16.26,1.25,1.88,2.35,3.49,3.38,5.15.15.23,0,.67-.07,1-1.32,6.11-2.66,12.22-4,18.33a1.46,1.46,0,0,1-2,1.29c-6.63-1.16-13.26-2.26-19.89-3.45a2.19,2.19,0,0,1-1.32-1c-.7-1.48-1.25-3-2-4.88l17.1,2.54-5.71-8.6c-1.37-2.07-2.72-4.14-4.14-6.17a1.94,1.94,0,0,0-1.29-.81c-6.17-.05-12.34,0-18.51,0a.87.87,0,0,0-.24.06l12.56,13c-2.32,0-4.51,0-6.69,0a2.43,2.43,0,0,1-1.28-.81q-6.95-6.59-13.87-13.21c-1.17-1.12-1.18-1.49-.07-2.69,4.41-4.8,8.81-9.6,13.28-14.34a3.54,3.54,0,0,1,2.12-.92c1.71-.13,3.44,0,5.54,0l-12,14.16c.46,0,.74.11,1,.11,5.91,0,11.82,0,17.73,0,.69,0,1.2-.06,1.57-.8,2.65-5.28,5.34-10.53,8-15.8a4.66,4.66,0,0,0,.21-.69l-16.56,3c.77-1.91,1.38-3.57,2.13-5.16a1.92,1.92,0,0,1,1.22-.82c6.19-1.54,12.4-3,18.59-4.56a1.45,1.45,0,0,1,2,1.08q3.16,9.1,6.32,18.2a1.85,1.85,0,0,1,0,1.35c-1,1.79-2,3.52-3.24,5.59-1.91-5.54-3.73-10.78-5.65-16.34l-2.73,5.43c-1.86,3.68-3.72,7.36-5.54,11.06a1.57,1.57,0,0,0-.08,1.28C671.21,649.77,674.37,654.6,677.72,659.74Z" transform="translate(-32.43 -27.64)"/><path d="M61.57,562c-1,0-1.65-.26-1.54-1.34a9.42,9.42,0,0,0-.05-1.3,8.49,8.49,0,0,0-3-6.36c-8.44-7.71-11.53-17.28-9-28.54a32.59,32.59,0,0,1,9.28-16.85c1.15-1.09,2.63-1.93,2.73-4.09.3.53.44.82.62,1.08a46.21,46.21,0,0,0,3.32,4.62c6.58,7.23,10.2,15.58,9.5,25.47a26.57,26.57,0,0,1-10,19.18,4.39,4.39,0,0,0-1.79,3.56c0,.79-.05,1.57-.06,2.35S61.57,561.2,61.57,562Z" transform="translate(-32.43 -27.64)"/><path d="M187.78,309.42c0,2.06.11,3.88,0,5.69-.13,1.65-1.34,2.67-2.65,3.51a16.74,16.74,0,0,1-7.5,2.4,22.25,22.25,0,0,1-12-1.69c-2.71-1.27-4.34-3.18-4-6.43.36-4,.32-8,.86-11.91.47-3.42,2.46-4.89,5.93-5s7.12-.15,10.68-.27a25.78,25.78,0,0,0,3.62-.34,6.75,6.75,0,0,0,5.85-5.69,51.47,51.47,0,0,0,.67-6.58c.05-.88.25-1.26,1.19-1.19a18.21,18.21,0,0,0,2.86,0,5.24,5.24,0,0,1,5.22,3c2.34,4.05,2.69,8.47,2.26,13a16.71,16.71,0,0,1-2.38,7.5,5.35,5.35,0,0,1-4.95,2.76c-5.6-.1-11.2,0-16.81,0a2,2,0,0,0-.77,0,8.36,8.36,0,0,0-1.1.68c.36.21.71.58,1.07.58,3.17.05,6.34,0,9.51,0Zm-3.4,5.18a2.48,2.48,0,0,0-2.46-2.34,2.42,2.42,0,0,0-2.41,2.51,2.46,2.46,0,0,0,2.51,2.28A2.49,2.49,0,0,0,184.38,314.6Z" transform="translate(-32.43 -27.64)"/><path d="M161.77,280.64a55.34,55.34,0,0,1,0-6.06c.18-1.55,1.47-2.52,2.77-3.27A20.86,20.86,0,0,1,177.2,269a17.45,17.45,0,0,1,7.67,2.29,5.33,5.33,0,0,1,3,5.22c-.26,3.84-.19,7.72-.58,11.55s-2.31,5.66-6.16,6c-3,.24-6.07.2-9.11.3-1.52.05-3.05,0-4.55.21-3.86.49-6.09,2.65-6.68,6.51-.34,2.27-.48,4.56-.72,6.9a30.35,30.35,0,0,1-5.95-.11,5.79,5.79,0,0,1-2.89-2.43,15.75,15.75,0,0,1-2.49-7.85,21.27,21.27,0,0,1,2.08-12.28,5.73,5.73,0,0,1,5.64-3.4c5.69.13,11.38.05,17.07,0,.49,0,1.31.28,1.17-.67,0-.25-.75-.56-1.16-.57-3.43,0-6.86,0-10.29,0Zm8.19-5.26a2.42,2.42,0,0,0-4.83.07,2.42,2.42,0,0,0,4.83-.07Z" transform="translate(-32.43 -27.64)"/><path d="M635.24,192.68V141.15h51.53v51.53Zm4.68-46.86V188h42.13V145.82Z" transform="translate(-32.43 -27.64)"/><path d="M435.72,426.62c-.15-2.1-.33-4.21-.41-6.31,0-.23.62-.6,1-.71,2.78-.83,5.59-1.58,8.36-2.44a2.25,2.25,0,0,0,1.31-1.1,1.59,1.59,0,0,0-.32-1.49,2.62,2.62,0,0,0-1.88-.31c-2.47.63-4.91,1.4-7.37,2.12-.24.07-.5.08-1.14.18.45-2.18.77-4.21,1.3-6.18.47-1.74,0-2.56-1.86-2.58l-6.76-.05c-.08,0-.16-.07-.36-.16.63-6.49,3-12.45,6.16-18.37H430.5l-.28-.38c1.31-1.79,2.58-3.62,4-5.35a1.35,1.35,0,0,1,2.09-.07,1.47,1.47,0,0,1,.1,2.2c-.84,1.08-1.65,2.18-2.64,3.49.79,0,1.25.08,1.7.08h17.71c1.88,0,2.29.42,2.29,2.3v32.68c0,1.83-.46,2.28-2.32,2.28h-16a13,13,0,0,0-1.4.14Zm4.2-28.05c0-.56,0-1.13,0-1.69a1.43,1.43,0,0,0-1.51-1.46,1.4,1.4,0,0,0-1.52,1.44c-.05,1.08-.05,2.17,0,3.24a1.4,1.4,0,0,0,1.5,1.46,1.43,1.43,0,0,0,1.53-1.44A13.34,13.34,0,0,0,439.92,398.57Z" transform="translate(-32.43 -27.64)"/><path d="M432.51,426.47l-24.23,0c-2.06,0-2.46-.38-2.46-2.4V391.48c0-1.89.4-2.29,2.28-2.29h22c-.9,2.08-1.8,4-2.59,6a42.2,42.2,0,0,0-3.08,13c-.14,2.24.3,2.68,2.54,2.69H433c-.25,2-.44,3.8-.76,5.62,0,.25-.73.59-1.08.55-3.08-.43-6.17-.85-9.23-1.43a35.82,35.82,0,0,1-4.34-1.38c-1.23-.41-2.07-.16-2.41.75s.1,1.69,1.31,2.14a42.44,42.44,0,0,0,15,3.07,3.88,3.88,0,0,1,.53.07c.15,2.09.3,4.15.45,6.21Zm-11.2-28c0-.51,0-1,0-1.55a1.47,1.47,0,0,0-1.48-1.52,1.44,1.44,0,0,0-1.59,1.39,19,19,0,0,0,0,3.37,1.43,1.43,0,0,0,1.59,1.38,1.47,1.47,0,0,0,1.48-1.51C421.34,399.54,421.31,399,421.31,398.49Z" transform="translate(-32.43 -27.64)"/><path d="M82.72,646.37v.13c-.13,1.33-.79,2.94-.26,3.91a30.21,30.21,0,0,1,1.29,3.7,6.33,6.33,0,0,0,1.88,2,13.84,13.84,0,0,0,1.47.81,1.91,1.91,0,0,1,.26,3.2,2.47,2.47,0,0,1-.86.58c-3.25,1.2-5.79,3.43-8.35,5.66-2.16,1.89-4.44,2.22-6.58,1a2.13,2.13,0,0,1-.93-.68c-.75-1.39-2-1.46-3.36-1.47-3,0-6-.07-8.94.11a5.9,5.9,0,0,0-2.74,1.31,4.85,4.85,0,0,1-4.29.91c-1.75-.48-3.46-1.13-5.22-1.6-2.34-.62-4.73-1.09-7.07-1.72s-2.64-1.36-1.54-3.6a8.58,8.58,0,0,0,.64-3.2,23,23,0,0,0-.31-2.58c-.1-1.95.91-3,2.87-3,2.4,0,3-.75,3-3.2a8.2,8.2,0,0,1,1-3.44,36.32,36.32,0,0,0,3.33-8,13.63,13.63,0,0,1,2-3.63,12.69,12.69,0,0,1,1.66-2,9.13,9.13,0,0,0,2.52-8.35,36.79,36.79,0,0,1-.4-7.27c.22-6.61,4-8.74,9.81-8.08,4.88.56,7.37,3.22,8,8.11.35,2.53.43,5.11,1,7.6a19.31,19.31,0,0,0,2,5.29A38.09,38.09,0,0,0,78,633.8,21.14,21.14,0,0,1,82.72,646.37ZM54.55,658.69a3.56,3.56,0,0,0,3.06,2.62,12.19,12.19,0,0,0,11.66-3.61,3.34,3.34,0,0,0,1.1-3.48,5.39,5.39,0,0,1,.11-2.32c.33-1.81,1.08-2.3,3.23-1.95,0-1.51,0-3,0-4.43a13.94,13.94,0,0,0-2.51-8.85,12.19,12.19,0,0,1-1.32-2.8c-.95-2.39-1.86-4.79-2.75-7.11-1.84,1-3.39,2.08-5.07,2.81a4.26,4.26,0,0,1-5.15-.9,3.1,3.1,0,0,0-.74-.45c-1.29,3.24-2.41,6.42-3.82,9.47-1.59,3.42-3.44,6.72-3.1,10.76A2.75,2.75,0,0,1,48,645.56a16.85,16.85,0,0,1,2.66-7.26c.16-.26.31-.54.47-.83-.21-.08-.32-.16-.36-.14a1,1,0,0,0-.4.3,20.09,20.09,0,0,0-3,8A3.72,3.72,0,0,0,48.66,649c1.2,1,2.49,1.88,3.69,2.87a32.48,32.48,0,0,1,3.39,3c1.47,1.6,1.25,2.47-.68,3.54Zm1.37,4.74a19.19,19.19,0,0,0-1.43-3.49c-1.81-2.94-3.79-5.79-5.75-8.64a5.8,5.8,0,0,0-1.49-1.43,2,2,0,0,0-3.39,1.26,1.59,1.59,0,0,1-1.73,1.38c-.56,0-1.13,0-1.69,0a2,2,0,0,0-2,2.22,6.2,6.2,0,0,0,.2,1.54A5.79,5.79,0,0,1,38,661c-1,1.59-.67,2.15,1.14,2.71.49.15,1,.25,1.51.38l7.89,2.11c1.12.31,2.22.75,3.36.95A3.51,3.51,0,0,0,55.92,663.43Zm26.35-12.54c-.83.74-1.42,1.32-2.08,1.83a7.93,7.93,0,0,1-2.21,1.5c-2,.66-3.5-.35-4.31-2.62-.18-.48-.75-.81-1.13-1.21-.42.43-1,.79-1.2,1.3a10.31,10.31,0,0,0-.22,2.44c-.2,3.37-.32,6.74-.65,10.09a2.43,2.43,0,0,0,.91,2.36,3.76,3.76,0,0,0,3.67.78,10.39,10.39,0,0,0,3.31-1.93,25.66,25.66,0,0,1,7.79-5.09,1.47,1.47,0,0,0,1-2.17,3,3,0,0,0-1.42-1.25,4.66,4.66,0,0,1-2.9-4C82.72,652.35,82.51,651.79,82.27,650.89Zm-26.5-24.38c.63.64,1.23,1.32,1.9,1.91a3.24,3.24,0,0,0,3.52.72,42.65,42.65,0,0,0,5.91-3.46c1-.69.84-1.55-.3-2.09s-2.67-1-4-1.62a4.65,4.65,0,0,0-5.14.42,20.67,20.67,0,0,0-2.32,2.44,14.92,14.92,0,0,0,3,2.07c1.82.72,3.45-.25,5-1.11.72-.39,1.4-.85,2.1-1.28C63.45,627,59.48,628.81,55.77,626.51ZM77,647.63c.2-1.85.49-3.55.54-5.26A6.76,6.76,0,0,0,75.37,637a7.29,7.29,0,0,0-1.53-.84l-.26.33c2.83,1.42,3.25,3.93,3.34,6.7s-1.29,5-3.17,7A4.35,4.35,0,0,1,78,648.26a5.09,5.09,0,0,1,3.88,2.26C81.17,647.9,78.94,647.86,77,647.63ZM67,623.1c0-1.56.06-2.89,0-4.2a2.09,2.09,0,0,0-2.07-2.1,2.3,2.3,0,0,0-2.6,1.27,3.37,3.37,0,0,0,.77,3.47c.12-1.24-.26-2.76,1.4-3.09a2.14,2.14,0,0,1,1.6.79c.8,1,.59,2.07-.44,3.41Zm-8.47-2,.6-.09a12,12,0,0,0-.81-3.07,1.49,1.49,0,0,0-2.81.28,8.44,8.44,0,0,0-.29,3.17c0,.49.61,1,1,1.55a14.09,14.09,0,0,1-.44-3.1A1.76,1.76,0,0,1,57,618.67c.4,0,1,.66,1.27,1.15A3.32,3.32,0,0,1,58.54,621.15Z" transform="translate(-32.43 -27.64)"/><path d="M650.38,428.33c1.37-.62,2.41-1.15,3.49-1.56a1.57,1.57,0,0,1,1.19.16q2.06,1.13,4,2.39a1.73,1.73,0,0,0,2,.05c4.64-2.72,9.3-5.4,14-8.09,1.69-1,3.41-1.91,5-3a2.15,2.15,0,0,0,.9-1.49c0-7.43,0-14.85,0-22.28a1.65,1.65,0,0,0-1-1.61q-9.21-5.25-18.36-10.61a2.64,2.64,0,0,0-3.07,0c-6.2,3.65-12.46,7.21-18.67,10.85a1.77,1.77,0,0,0-.75,1.29q-.08,11.22,0,22.42a2,2,0,0,0,.82,1.38c1.61,1,3.29,1.94,4.94,2.89,2.73,1.56,5,.25,5-2.85V397.15c0-1.82,0-1.82,1.77-1.82.22,0,.44,0,.65,0,1.1-.13,1.41.37,1.41,1.44,0,7.42,0,14.85-.06,22.28a11.79,11.79,0,0,1-.88,3.74,4.35,4.35,0,0,1-3.4,2.55c-3.05.75-5.6-.54-8.11-2-1.13-.66-2.27-1.29-3.39-1.95a4.65,4.65,0,0,1-2.53-4.24q0-11.41,0-22.81a4.55,4.55,0,0,1,2.38-4.2Q647.9,384.29,658,378.5a4.2,4.2,0,0,1,4.35,0c5,2.84,9.92,5.71,14.88,8.57,1.58.9,3.14,1.85,4.73,2.72a4.69,4.69,0,0,1,2.79,4.56c-.11,7.64-.09,15.29,0,22.94a4.34,4.34,0,0,1-2.39,4.13q-9.61,5.58-19.25,11.14a5,5,0,0,1-5.64,0C655.2,431.13,652.88,429.81,650.38,428.33Z" transform="translate(-32.43 -27.64)"/><path d="M333.59,616v25.27H305.21V620.18Z" transform="translate(-32.43 -27.64)"/><path d="M305.16,665.36V644.28h28.4v25.09Z" transform="translate(-32.43 -27.64)"/><path d="M280.86,641.51v-18l21.55-3v20.92Z" transform="translate(-32.43 -27.64)"/><path d="M280.85,644h21.56v21l-21.56-3Z" transform="translate(-32.43 -27.64)"/><path d="M285.65,409.51c0-3.56,0-7.12,0-10.68a5.05,5.05,0,0,1,2.79-4.78q9.65-5.4,19.28-10.84a5,5,0,0,1,5.32,0q9.69,5.46,19.4,10.9a5,5,0,0,1,2.71,4.69q0,10.74,0,21.49a5,5,0,0,1-2.73,4.68q-9.71,5.44-19.4,10.9a5.05,5.05,0,0,1-5.31,0q-9.63-5.44-19.29-10.84a5.09,5.09,0,0,1-2.77-4.79C285.67,416.63,285.65,413.07,285.65,409.51Zm2.36.06c0,3.48,0,6.95,0,10.43a3.1,3.1,0,0,0,1.77,3.05q9.5,5.29,19,10.65a3.09,3.09,0,0,0,3.32,0q9.52-5.37,19.06-10.73a3,3,0,0,0,1.68-2.84q0-10.62,0-21.24a3,3,0,0,0-1.66-2.85q-9.56-5.34-19.07-10.73a3.13,3.13,0,0,0-3.32,0q-9.47,5.35-19,10.65a3.13,3.13,0,0,0-1.78,3C288.05,402.53,288,406.05,288,409.57Z" transform="translate(-32.43 -27.64)"/><path d="M311.23,269.63h20.71c2,0,2.13.07,1.94,2.16q-1.25,14.07-2.51,28.15c-.41,4.63-.84,9.25-1.21,13.88a1.79,1.79,0,0,1-1.46,1.84c-5.48,1.54-10.93,3.13-16.41,4.65a4.31,4.31,0,0,1-2.17,0c-5.53-1.53-11-3.13-16.54-4.68a1.72,1.72,0,0,1-1.38-1.76q-1.84-20.89-3.72-41.78c0-.3,0-.6-.05-.91-.15-1.19.37-1.58,1.56-1.57C297.07,269.65,304.15,269.63,311.23,269.63Zm-20.42,2.16c0,.5,0,.93,0,1.35q1.76,19.65,3.48,39.3a1.44,1.44,0,0,0,1.3,1.46c4.84,1.36,9.67,2.77,14.52,4.11a4.31,4.31,0,0,0,2.14,0c4.81-1.33,9.59-2.74,14.4-4.07a1.66,1.66,0,0,0,1.44-1.76c1-11.63,2.05-23.26,3.08-34.89.17-1.83.3-3.67.45-5.51Z" transform="translate(-32.43 -27.64)"/><path d="M666,394.26a53.15,53.15,0,0,1,6.33,1.72c2.38,1,3.14,3.2,3.44,5.59a.86.86,0,0,1-.19.59c-.61.73-3.46.29-3.7-.63-.55-2.17-2.09-3-4.1-3.13a30.68,30.68,0,0,0-4.79.15,3.86,3.86,0,0,0-1.85.87c-1.29,1-1.08,2.83.5,3.26,2.25.61,4.6.87,6.88,1.34a38.94,38.94,0,0,1,4.79,1.18c3.65,1.25,4.24,5.56,2.43,8.21a7.54,7.54,0,0,1-3,2.68,16.88,16.88,0,0,1-13.42-.22c-2.43-1.07-3.46-3.16-3.58-5.74,0-.21,0-.59.1-.6a18.86,18.86,0,0,1,3-.38c.3,0,.82.55.86.89a3.47,3.47,0,0,0,3.58,3.29,58.09,58.09,0,0,0,7-.15,2.7,2.7,0,0,0,1.47-.75c1.62-1.44,1.27-3.43-.82-4s-4-.68-6-1.07a39.33,39.33,0,0,1-5.18-1.2,4.71,4.71,0,0,1-3.33-4.39,5.72,5.72,0,0,1,2.83-5.61,11.86,11.86,0,0,1,6.76-1.53Z" transform="translate(-32.43 -27.64)"/><path d="M556.57,389.59a3.48,3.48,0,0,1,3.3,4.34c-.66,3.32-1.43,6.62-2.15,9.93l-3,14a10.44,10.44,0,0,1-.4,1.38,3.74,3.74,0,0,1-4.28,2.38,3.57,3.57,0,0,1-2.46-4.31c.65-3.19,1.36-6.36,2.06-9.54q1.56-7.2,3.13-14.38C553.27,391,554.67,389.6,556.57,389.59Z" transform="translate(-32.43 -27.64)"/><path d="M536.05,404.78l5.3,5.41c.27.28.56.55.81.84a3.6,3.6,0,0,1,.18,5,3.67,3.67,0,0,1-5.17,0c-2-1.84-3.93-3.81-5.88-5.72-1-.95-1.94-1.87-2.85-2.86a3.67,3.67,0,0,1,0-5.46q4.15-4.21,8.44-8.31a3.76,3.76,0,0,1,5.37-.26c1.41,1.43,1.25,3.57-.43,5.34C540,400.73,538,402.73,536.05,404.78Z" transform="translate(-32.43 -27.64)"/><path d="M570.78,405c-2.09-2.15-3.91-4.06-5.77-6s-2.21-4.13-.75-5.62,3.86-1.3,5.76.57c2.56,2.53,5.14,5,7.69,7.59,2.17,2.16,2.17,4.12,0,6.31-2.6,2.61-5.24,5.19-7.88,7.76a5.59,5.59,0,0,1-1.24.93,3.6,3.6,0,0,1-4.51-.75,3.49,3.49,0,0,1,.18-4.55c1.74-1.87,3.6-3.64,5.42-5.43A9.74,9.74,0,0,1,570.78,405Z" transform="translate(-32.43 -27.64)"/><path d="M36.61,295.34c-1.46,7.56,5.44,13.59,13,11.54a8.39,8.39,0,0,0,6-5.91c.5-1.55,1-1.79,2.33-1.32-.31,4.8-4.26,8.71-9.55,9.45-6.84,1-12.31-3-13.76-9.77a20.09,20.09,0,0,1,.46-9.63A12.12,12.12,0,0,1,48,280.82c5.27.46,9.59,5,10.19,10.72.08.74.09,1.48.19,2.21.18,1.22-.23,1.64-1.53,1.62-6.29-.07-12.59,0-18.88,0Zm19.55-1.93c.29-6-4.11-10.78-9.66-10.68a10.12,10.12,0,0,0-9.89,10.68Z" transform="translate(-32.43 -27.64)"/><path d="M59.51,308.42c1.5-2,2.88-3.88,4.28-5.75,1.84-2.47,3.66-5,5.56-7.39a1.26,1.26,0,0,0,0-1.88c-2.91-3.68-5.75-7.41-8.61-11.12-.13-.17-.25-.35-.38-.53,1.49-.64,2.6-.32,3.69,1.13,2.22,2.94,4.41,5.91,6.62,8.87.22.3.47.59.78,1,2.49-3.31,4.92-6.53,7.33-9.75a3,3,0,0,1,3.63-1.34c-1,1.29-1.85,2.49-2.75,3.67-2,2.56-3.88,5.13-5.89,7.63a1.91,1.91,0,0,0,0,2.76c2.94,3.81,5.82,7.68,8.72,11.53.26.34.5.69.75,1a2.58,2.58,0,0,1-3.51-1c-2.3-3.11-4.55-6.25-6.82-9.38-.45-.62-.92-1.23-1.47-2L64.66,305c-.63.83-1.23,1.69-1.89,2.49A2.78,2.78,0,0,1,59.51,308.42Z" transform="translate(-32.43 -27.64)"/><path d="M445.4,147.71a4.52,4.52,0,0,1-4.35,2.47c-10.25-.12-20.5-.05-30.75-.05-3.24,0-4.5,1.25-4.5,4.48v36.75c0,3.31,1.24,4.55,4.57,4.55h36.75c3.21,0,4.47-1.27,4.47-4.52,0-10.86.07-21.72-.07-32.57,0-2.09,1-3.25,2.41-4.6,0,.49.07.81.07,1.13v36c0,4.7-2.34,7-7.06,7H410.32c-4.52,0-6.95-2.41-6.95-6.89V154.57c0-4.44,2.41-6.86,6.83-6.86q17.07,0,34.14,0Z" transform="translate(-32.43 -27.64)"/><path d="M434.17,163.61l16.92-18.31,4.11,3.87-20.81,22.64-12.92-12.29,3.88-4.09Z" transform="translate(-32.43 -27.64)"/><path d="M423.52,175.34a13.29,13.29,0,0,1-2.21,0,1.49,1.49,0,0,1-1-.7c-1.21-2.88-5.75-2.87-7.46-1.3a2.45,2.45,0,0,0,.59,4.18,35.05,35.05,0,0,0,4,1.25c1,.32,2.1.57,3.09,1a5,5,0,0,1,3.39,4.66,5.55,5.55,0,0,1-3,5.53,10,10,0,0,1-9.62,0,5.22,5.22,0,0,1-2.9-4.87,19.44,19.44,0,0,1,2.29,0,1.15,1.15,0,0,1,.78.65c1,2.92,6.57,3.18,8.37,1.16a2.53,2.53,0,0,0-.57-4.09,24.27,24.27,0,0,0-3.8-1.29c-1.07-.35-2.19-.57-3.23-1a5.05,5.05,0,0,1-3.44-4.76,5.34,5.34,0,0,1,3-5.33,9,9,0,0,1,8.75.08A5.51,5.51,0,0,1,423.52,175.34Z" transform="translate(-32.43 -27.64)"/><path d="M441.83,183.77H430.88A4,4,0,0,0,434,188.4a5.19,5.19,0,0,0,4.48-1.17c.69-.58,2-.47,3.26-.73a5.06,5.06,0,0,1-2.6,3.59c-3.34,1.88-8,1.11-10.1-1.64-2.25-3-2-8.42.59-11a7.92,7.92,0,0,1,8.62-1.3C440.8,177.37,442.21,180.26,441.83,183.77ZM431,181.35h7.68a3.53,3.53,0,0,0-3.83-3.44A3.63,3.63,0,0,0,431,181.35Z" transform="translate(-32.43 -27.64)"/><path d="M441,279.75c0,2.17,0,4.34,0,6.51a5.22,5.22,0,0,1-5.2,5.51c-3,0-5.13-2.31-5.14-5.54q0-6.57,0-13.15a5.18,5.18,0,1,1,10.33,0C441,275.32,441,277.53,441,279.75Z" transform="translate(-32.43 -27.64)"/><path d="M415.27,291.78c-2.21,0-4.42,0-6.64,0a5.18,5.18,0,1,1,0-10.34c4.38,0,8.76,0,13.14,0,3.25,0,5.5,2.18,5.51,5.17s-2.26,5.14-5.5,5.18c-1.08,0-2.17,0-3.25,0Z" transform="translate(-32.43 -27.64)"/><path d="M427.28,307.24c0,2.26,0,4.52,0,6.77a5.15,5.15,0,0,1-10.3.17q-.12-7,0-14.06a5.16,5.16,0,0,1,10.31.23v6.89Z" transform="translate(-32.43 -27.64)"/><path d="M442.75,295.11c2.21,0,4.43,0,6.64,0a5.16,5.16,0,1,1,.11,10.3c-4.56,0-9.12.05-13.68,0a5.15,5.15,0,1,1,0-10.29C438.14,295.08,440.44,295.11,442.75,295.11Z" transform="translate(-32.43 -27.64)"/><path d="M444.44,288.54c0-.73,0-1.47,0-2.21a5.15,5.15,0,0,1,5-4.9,5.39,5.39,0,0,1,5.39,4.68,5.17,5.17,0,0,1-4.16,5.49,36.92,36.92,0,0,1-5.57.14c-.22,0-.59-.46-.62-.73-.08-.81,0-1.64,0-2.47Z" transform="translate(-32.43 -27.64)"/><path d="M427.27,277.92c-2.09,0-4,.16-5.89,0a5.07,5.07,0,0,1-4.41-5.51,5.37,5.37,0,0,1,5.27-4.8,5.25,5.25,0,0,1,5,5C427.32,274.33,427.27,276.06,427.27,277.92Z" transform="translate(-32.43 -27.64)"/><path d="M430.66,309c2.13,0,4.13-.16,6.09,0a5.07,5.07,0,0,1,4.21,5.41,5.17,5.17,0,0,1-5.22,4.77,5.06,5.06,0,0,1-5.06-4.62C430.58,312.77,430.66,311,430.66,309Z" transform="translate(-32.43 -27.64)"/><path d="M413.43,295.15c0,2.09.14,4,0,6a5,5,0,0,1-5.33,4.3,5.16,5.16,0,0,1-4.89-5,5.09,5.09,0,0,1,4.55-5.27C409.57,295,411.43,295.15,413.43,295.15Z" transform="translate(-32.43 -27.64)"/><path d="M646.8,41.33c-.35,1-.67,1.81-.89,2.63-1.9,6.93-.34,13.24,3.57,19.06A27.34,27.34,0,0,0,679,74.32c3.36-.91,5.2-2,9.37-5.87a10.36,10.36,0,0,1-.44,1.08c-4.62,8.09-11.71,11.64-20.9,11.71-13.54.1-26.52-12.31-26.38-26.17C640.71,49.66,643,45.3,646.8,41.33Z" transform="translate(-32.43 -27.64)"/><path d="M689.42,56.55a14.44,14.44,0,0,1-8,8,19.4,19.4,0,0,1-26.19-14,14.63,14.63,0,0,1,3.88-13.12,15.62,15.62,0,0,0,.63,12.9A19.92,19.92,0,0,0,669,59.61C674.72,62.44,683.16,63.26,689.42,56.55Z" transform="translate(-32.43 -27.64)"/><path d="M688,47.54c-2.26,3.61-5.25,5.13-9.11,4.92a12,12,0,0,1-11.06-7.76c-1.55-3.56-.9-6.92,1.76-10.2-1.57,5.75.43,10,4.85,13C678.67,50.34,683.24,51.06,688,47.54Z" transform="translate(-32.43 -27.64)"/><path d="M157.32,77.49a8.76,8.76,0,0,1-5.15-2.34,14.58,14.58,0,0,1-4.43-7.94c-1.15-5.23-.81-10.32,2.06-15a13.75,13.75,0,0,1,3.62-3.83,2.77,2.77,0,0,0,1.38-2.72c-.33-6.18,2.61-10.62,7.56-13.94a21.87,21.87,0,0,1,8.52-3.41c7-1.23,13.7-.52,19.76,3.47,4.94,3.25,7.81,7.72,7.49,13.84a2.77,2.77,0,0,0,1.46,2.8,11,11,0,0,1,3.31,3.42c4,6.94,4,14-.1,20.87a9.2,9.2,0,0,1-7.19,4.68v-1.5c0-9.86-.17-19.72.06-29.57.15-6.61-2.89-11-8.56-13.62-8-3.7-16.05-3.43-23.62,1.34a12.66,12.66,0,0,0-6.21,11.59c.13,10.07,0,20.14,0,30.22Zm40.91-3.82c3.29-1.81,5.47-7.66,4.91-13.27-.38-3.82-1.63-7.23-4.91-9.91ZM154.74,50.82c-4.07,3.32-5.26,7.72-5,12.64.25,4.5,2.49,9,5,10.2Z" transform="translate(-32.43 -27.64)"/><path d="M179.93,65.36l3.52-12.9.25-.05,2.59,11.8,1.49-3.16c.73,3.41-.38,6.18-2,9.1-.8-3.41-1.54-6.64-2.29-9.87h-.24l-3.54,13-.27,0-3.3-14.22h-.26l-2.23,14.75-.25,0-3.66-13.67h-.25c-.74,3.09-1.48,6.18-2.27,9.51-1.58-3.28-2.78-6.38-2.05-10.13l1.51,3.74c.91-3.84,1.75-7.32,2.58-10.8h.23l3.39,12.14.28,0q1.23-7.87,2.47-15.76h.26l3.78,16.5Z" transform="translate(-32.43 -27.64)"/><path d="M159.93,77.14V47.4c1.93.09,2.52.68,2.52,2.51V74.24C162.45,76.44,162.36,76.55,159.93,77.14Z" transform="translate(-32.43 -27.64)"/><path d="M193,77.09c-2.23-.41-2.48-.69-2.48-2.81V50.05c0-2,.24-2.3,2.48-2.72Z" transform="translate(-32.43 -27.64)"/><path d="M76.34,159.77c-8.22,4.83-7.63,16.63,1.51,20.95a19.18,19.18,0,0,1-1.2,2.8,77,77,0,0,1-5.32,8.07c-2.61,3.23-5.44,3.81-9.31,2.18a12.68,12.68,0,0,0-10.59,0,7.19,7.19,0,0,1-9-2c-5.69-6.33-8.93-13.67-8.76-22.24.11-5.7,2.33-10.48,7.58-13.38a11.34,11.34,0,0,1,9.77-.8l.13.05c3.31,1.8,6.5,1.42,9.94,0A12.84,12.84,0,0,1,76.34,159.77Z" transform="translate(-32.43 -27.64)"/><path d="M66.61,142.19c1.06,5.33-4.48,11.95-9.51,12.34-.86.07-1.35,0-1.37-1.08C55.66,148,61.11,142.32,66.61,142.19Z" transform="translate(-32.43 -27.64)"/><path d="M644.3,547.53c1.64.29,3.27.68,4.92.84a84,84,0,0,0,23.48-.92,6.46,6.46,0,0,0,1.84-.63,1.17,1.17,0,0,0,.42-1c-.09-.83.29-.92.91-.69,1.23.46,1.57,1.79.51,2.54a12,12,0,0,1-3.47,1.7,50.93,50.93,0,0,1-13.51,1.82,88.76,88.76,0,0,1-17-1.16c-1.2-.19-2.71-.34-2.88-1.77s1.2-2,2.28-2.34a46.13,46.13,0,0,1,5.91-1.29c.37-.06.85.53,1.27.81a7.49,7.49,0,0,1-1.19.54c-1.17.34-2.35.64-3.53,1Zm18.05,2.3c-2.76,0-5.53.13-8.29,0-3-.18-6-.59-9-1-1.07-.15-2.3-.39-2.3-2.11L640.61,548l.09.52A69.91,69.91,0,0,0,662.35,549.83Z" transform="translate(-32.43 -27.64)"/><path d="M666.87,504.49a10.32,10.32,0,0,1-2.21,5.51c-1.46,1.76-3.15,3.33-4.77,5-.8.8-1.71,1.49-2.45,2.33-2,2.28-2.18,4.31-.64,6.91.88,1.49,1.91,2.9,2.79,4.39a.77.77,0,1,1-1,.85,62,62,0,0,1-5.09-5.55c-2.33-3.12-2.11-5.57.64-8.35,1.55-1.57,3.36-2.87,5-4.33a40.2,40.2,0,0,0,3-2.73,7.64,7.64,0,0,0,2.13-7.05,3.55,3.55,0,0,1,.19-1.18c.36.22.91.36,1.06.68C666,502.08,666.42,503.3,666.87,504.49ZM655.4,525l.36-.26c-1.79-3.87-1.38-6.15,1.71-9.19.71-.7,1.49-1.32,2.25-2a17.88,17.88,0,0,0,5-6c.32-.68.52-1.42.77-2.12l-.29-.16c-1.28,4-4.6,6.08-7.55,8.54a36.88,36.88,0,0,0-3.57,3.39,3.41,3.41,0,0,0-.9,3.61C653.82,522.3,654.67,523.64,655.4,525Z" transform="translate(-32.43 -27.64)"/><path d="M649.14,532c1.32.1,2.64.27,4,.3a90.25,90.25,0,0,0,16.58-1.23,1.63,1.63,0,0,1,.64-.09,4.74,4.74,0,0,1,.85.41c-.15.23-.26.58-.48.68a19.58,19.58,0,0,1-3.94,1.59,59.47,59.47,0,0,1-20,.5,4.63,4.63,0,0,1-1.62-.44c-.53-.29-1.26-.78-1.3-1.24s.61-1.19,1.11-1.37c2.11-.75,4.27-1.35,6.43-1.95a5,5,0,0,1,1.81-.13c.31,0,.59.36.88.56-.24.21-.45.53-.73.63-1.38.46-2.79.87-4.18,1.3Zm.24,1.49c-.85-.71-2.19-.62-1.86-2.33L645,532.27l0,.39Z" transform="translate(-32.43 -27.64)"/><path d="M659.36,554c-3.09-.31-6.67-.64-10.24-1a8.08,8.08,0,0,1-2.21-.73c-.19-.08-.26-.46-.39-.71a2.16,2.16,0,0,1,.67-.32,5.31,5.31,0,0,1,1,.11,71.32,71.32,0,0,0,24.72-1,35.74,35.74,0,0,0,5.43-2.32c.24-.1.72-.15.77-.05a1.25,1.25,0,0,1,.13.92,4.37,4.37,0,0,1-2.87,2.66,43.51,43.51,0,0,1-6.79,1.7C666.39,553.61,663.13,553.72,659.36,554Z" transform="translate(-32.43 -27.64)"/><path d="M671.83,511.56a11,11,0,0,1-.86.7c-1.63,1.08-3.28,2.12-4.87,3.23a12,12,0,0,0-1.84,1.65c-1.47,1.59-1.56,2.75-.42,4.56.39.62.84,1.21,1.25,1.82,1.24,1.85,1.31,3.6-.09,5.28a22.81,22.81,0,0,1-3.31,2.87c-.18.15-.6,0-.91,0a2.7,2.7,0,0,1,.2-.89c1.71-2.33,1.72-2.88,0-5.12-3.07-4-2.63-7.6,1.36-10.7a24.44,24.44,0,0,1,8.29-3.93,3.13,3.13,0,0,1,1.15.14Zm-6.55,2.88-.07-.1c-.87.62-1.79,1.18-2.6,1.87-3,2.54-3.27,5.23-1,8.45a38.71,38.71,0,0,1,2.16,3.83c1.36-1.39,1.49-2.68.27-4.48-.53-.79-1.09-1.57-1.56-2.4a3.72,3.72,0,0,1,.35-4.49C663.59,516.18,664.46,515.33,665.28,514.44Z" transform="translate(-32.43 -27.64)"/><path d="M652,535.45l-.85,1.24a9.82,9.82,0,0,0,1.31.34,35.35,35.35,0,0,0,12.31-.44c1.78-.41,2.85.53,4.15,1.19a.82.82,0,0,1,.28.51,2.25,2.25,0,0,1-.89.62,88.44,88.44,0,0,1-9.38,1.4,49.21,49.21,0,0,1-8-.62,5.21,5.21,0,0,1-2.14-.88c-.4-.25-.93-.93-.82-1.19a3.84,3.84,0,0,1,1.34-1.75C650,535.41,650.81,534.74,652,535.45Zm14.74,2.77,0-.55a13,13,0,0,0-1.66.1,41.32,41.32,0,0,1-12.7.37,12.32,12.32,0,0,1-2.64-1l-.09-.44-.78.69.24.54C654.91,540.07,660.8,539.3,666.7,538.22Z" transform="translate(-32.43 -27.64)"/><path d="M652.9,542.14a25.26,25.26,0,0,0,10.32,0c2.13-.5,3.45.82,5.37,1.66a6.74,6.74,0,0,1-1.23.83,23.67,23.67,0,0,1-15.05.8,6.89,6.89,0,0,1-2.18-1.1,1.42,1.42,0,0,1,0-2.5,6.15,6.15,0,0,1,1.48-.78C652.85,540.57,653.09,540.79,652.9,542.14Zm-2.48.71c2.36,2.63,12.22,3,15.44.7a7.49,7.49,0,0,0-2.29-.28c-1.39.1-2.76.46-4.14.44-2.69,0-5.47.4-8-1.13C651.29,542.47,650.89,542.72,650.42,542.85Z" transform="translate(-32.43 -27.64)"/><path d="M674.3,528.33c2.16.3,3.82,1.07,4.71,3s0,3.5-1.19,4.87c-1.88,2.07-4.43,3-7,3.7-.23.06-.53-.13-.81-.2.11-.29.14-.69.35-.85.68-.53,1.49-.9,2.14-1.46a25.85,25.85,0,0,0,3.11-3.08,2.24,2.24,0,0,0,0-2.9,2.7,2.7,0,0,0-2.9-1,2.59,2.59,0,0,1-.75.19c-.27,0-.66-.12-.75-.3a.79.79,0,0,1,.25-.75C672.33,529.1,673.32,528.73,674.3,528.33Zm1.08,8.34a4.36,4.36,0,0,0,2.75-4.2,3,3,0,0,0-2.28-2.5C677.71,532.46,677.64,533.19,675.38,536.67Z" transform="translate(-32.43 -27.64)"/><path d="M435.71,426.6a19.08,19.08,0,0,0,.75,3.42c.4,1,.5,1.78-.46,2.36a1.43,1.43,0,0,1-2.22-.81c-.57-1.65-.86-3.39-1.27-5.1l0,0,3.25.11Z" transform="translate(-32.43 -27.64)"/><path d="M332.25,55c0,5.25,0,10.51,0,15.76a7.71,7.71,0,0,1-7.88,7.93q-16-.07-31.92-.28a7.75,7.75,0,0,1-7.59-7.87q0-15.82.26-31.66A7.86,7.86,0,0,1,293.36,31q15.51.07,31,.25a8,8,0,0,1,8.18,8.25c-.16,5.17,0,10.34,0,15.51Zm-34.38-13.6V69c.3,0,.59.08.89.09,4.12,0,8.25.12,12.37.07a16.64,16.64,0,0,0,4.09-.6,7.26,7.26,0,0,0,5.63-7.08c.17-3.51-1.33-5.78-4.69-7.1-.06,0-.09-.14-.14-.24,2.68-1.28,3.71-3.48,3.55-6.35a5.78,5.78,0,0,0-3.83-5.41,12.37,12.37,0,0,0-3.89-.84c-3-.14-6.08-.08-9.12-.1Z" transform="translate(-32.43 -27.64)"/><path d="M302.77,65.2V56.52c.64,0,1.19,0,1.73,0,2.38,0,4.77,0,7.15.1a4.1,4.1,0,0,1,4.1,3,4.27,4.27,0,0,1-2,5,4.17,4.17,0,0,1-1.84.54C308.88,65.23,305.89,65.2,302.77,65.2Z" transform="translate(-32.43 -27.64)"/><path d="M302.89,53.13v-7.5c3.11,0,6.14-.14,9.15,0,1.81.12,2.65,1.49,2.63,3.43,0,2.2-1.18,3.82-3.3,4C308.57,53.28,305.75,53.13,302.89,53.13Z" transform="translate(-32.43 -27.64)"/><path d="M179.12,514.3h23.41c0,.56.07,1,.07,1.47,0,10.55,0,21.1,0,31.66a3.76,3.76,0,0,0,.69,2.1,12.24,12.24,0,0,1,.05,14.49,16.63,16.63,0,0,0-1,2l-2.95,1.51a12.12,12.12,0,0,1-12.52-.5,4.41,4.41,0,0,0-2.14-.64c-10.78,0-21.55,0-32.32,0h-1.64v-52h1.53c7.82,0,15.64,0,23.45,0a5.07,5.07,0,0,0,1.77-.74,14.69,14.69,0,0,1,3.13-1.39,45,45,0,0,1,4.8-.28c2.94-.22,3.77-1.08,4-4a1.32,1.32,0,0,1,.59-.86,4.52,4.52,0,0,1-1.36,5c2.75.17,4.11-1,4.36-3.51a1.49,1.49,0,0,1,.6-.93c.65,2.9-.67,5-3.49,5.33a59,59,0,0,1-6.1.25C182.39,513.15,180.63,513,179.12,514.3ZM196,544.76a1.1,1.1,0,0,0,.11-.35c0-3.73,0-7.47,0-11.2,0-1-.58-.88-1.2-.88h-12.2v7h-3.64c0,.8,0,1.49,0,2.17a1.78,1.78,0,0,1-1.91,1.86,1.76,1.76,0,0,1-1.71-1.92c0-.67,0-1.35,0-2.19h-3.73v-6.84h-14.5c0,.49-.06.87-.06,1.26q0,10.81,0,21.62c0,3.53,1.85,5.34,5.42,5.35h19.39C179.49,551.69,186.5,543.3,196,544.76ZM176.2,520c-5.1,0-10.08-.08-15,0a4.1,4.1,0,0,0-3.85,3.52,48.18,48.18,0,0,0-.05,5.78h12.1c-.52-1.89-.15-2.54,1.54-2.71l.19,2.68h.51c.35-2.26,0-4.59.22-7h4.39Zm19.87,9.3c0-1.56,0-3,0-4.4a4.72,4.72,0,0,0-5-4.95c-3.21,0-6.42,0-9.63,0h-3.89v2.42h5.33v6.9l.41,0V526.6c1.72.26,2,.72,1.67,2.71ZM194,562c2.29.27,4.5.42,6.53-.67,2.25-1.2,2.78-3.3,2.57-5.66a4.23,4.23,0,0,0-3.37-4,27.93,27.93,0,0,0-5-.22,1,1,0,0,0-.68.68C193.94,555.42,194,558.66,194,562Zm-8.42-.27a26.85,26.85,0,0,0,3.36.45,3.47,3.47,0,0,0,3.49-2.21c.42-1.39,0-2.32-1.81-3.52a6.45,6.45,0,0,0,.63-.47,2.32,2.32,0,0,0-.62-4.08,5.21,5.21,0,0,0-4.65.5c.2.49.35.87.45,1.1a10.45,10.45,0,0,1,2.55-.26,1.73,1.73,0,0,1,1.12,1.14c.07.35-.47,1-.88,1.21a4.77,4.77,0,0,1-1.51.3,2.24,2.24,0,0,0-.42.19l.06,1.1c.57.07,1,.1,1.51.19,1,.2,1.74.69,1.64,1.82s-1,1.49-2,1.45a16.12,16.12,0,0,1-2.45-.42Z" transform="translate(-32.43 -27.64)"/><path d="M195.92,560.64c0-2.49,0-4.83,0-7.16,0-.21.39-.55.65-.6a3.61,3.61,0,0,1,4.34,2.59c.55,2.53-.59,4.6-2.83,5A16,16,0,0,1,195.92,560.64Z" transform="translate(-32.43 -27.64)"/><path d="M291.08,542.56a49.85,49.85,0,0,1-5.51-2.34,21.92,21.92,0,0,1-4.9-3.57c-2.65-2.74-2.54-6.17,0-9,2.34-2.6,5.44-4,8.65-5.1l1.5-.54a39.21,39.21,0,0,1-.72-4.52,30,30,0,0,1,.12-6.22c.81-5,4.52-7.09,9.3-5.5a24,24,0,0,1,8.46,5.48l.85.79,1.05-1a24.18,24.18,0,0,1,8.25-5.34c4.86-1.67,8.55.51,9.51,5.58a21.73,21.73,0,0,1-.49,9.29c-.3,1.24.09,1.56,1.13,1.89a21.57,21.57,0,0,1,7.79,4.08,7.66,7.66,0,0,1,2.9,4.65,6.64,6.64,0,0,1-2.15,5.88,20.59,20.59,0,0,1-7.92,4.6c-.73.27-1.46.51-2.15.75a57.32,57.32,0,0,1,1,6.5,22.69,22.69,0,0,1-.51,6.43c-1,3.88-4.13,5.54-8,4.6-3.22-.77-5.81-2.66-8.28-4.74-.66-.56-1.29-1.15-2-1.83a13.91,13.91,0,0,1-1.53,1.37c-2.36,1.59-4.69,3.26-7.17,4.65a7.19,7.19,0,0,1-5.45.53c-2.74-.76-4.67-3.38-4.74-7.07a74.24,74.24,0,0,1,.67-8.53A15.45,15.45,0,0,1,291.08,542.56Zm17.73-.39c1.67-.07,3.41-.1,5.14-.27a1.93,1.93,0,0,0,1.33-.76c1.53-2.52,3-5.09,4.4-7.68a1.87,1.87,0,0,0,0-1.52q-2.47-4.43-5.11-8.76a1.86,1.86,0,0,0-1.34-.77q-4.37-.1-8.73,0a1.87,1.87,0,0,0-1.33.79q-2.67,4.39-5.18,8.87a1.59,1.59,0,0,0,0,1.3c1.44,2.62,2.91,5.23,4.46,7.79a2,2,0,0,0,1.35.74C305.44,542.06,307.1,542.09,308.81,542.17Zm2,9.42c2.58,2.46,5.28,4.82,8.86,5.81,2.6.73,4.41-.26,5.11-2.8,1.07-3.86.22-7.62-.69-11.37-2.5.38-4.85.73-7.19,1.11a1.57,1.57,0,0,0-.85.51C314.33,547.05,312.62,549.28,310.83,551.59Zm-17.11-8.37c-1,3.66-1.71,7.35-.78,11.14.67,2.68,2.47,3.7,5.11,3,3.6-1,6.29-3.36,8.87-5.78-1.79-2.31-3.48-4.51-5.2-6.69a1.51,1.51,0,0,0-.83-.53C298.55,544,296.19,543.6,293.72,543.22ZM307,513.86c-2.62-2.45-5.27-4.76-8.77-5.76-2.74-.79-4.76.28-5.24,3.08a32.39,32.39,0,0,0-.17,6.46,24.64,24.64,0,0,0,.64,3.54c2.9-.43,5.56-.81,8.22-1.23a1.42,1.42,0,0,0,.84-.49C304,517.65,305.4,515.81,307,513.86Zm17.36,7.29c.79-3.3,1.34-6.58.56-9.93-.63-2.71-2.39-3.87-5-3.2-3.69,1-6.44,3.39-9.09,5.89,1.51,1.89,2.91,3.66,4.34,5.41a1.68,1.68,0,0,0,.91.61C318.74,520.36,321.44,520.74,324.31,521.15ZM326,539.87c3.23-1,6.27-2.12,8.73-4.4,2.29-2.12,2.32-4.37.05-6.51s-5.37-3.4-8.44-4.35c-1.07,2.66-2.1,5.23-3.12,7.8a.94.94,0,0,0,0,.62C324.08,535.28,325,537.51,326,539.87Zm-34.5-15.25c-3.14,1-6.22,2.15-8.61,4.56-2,2-2,4.07,0,6,2.48,2.46,5.64,3.62,8.88,4.62,1-2.34,1.89-4.58,2.79-6.82a1.17,1.17,0,0,0,0-.74C293.54,529.75,292.53,527.23,291.48,524.62Zm17.37,25,4-4.86h-8Zm14.81-25.83-6.08-1,4,6.79Zm-29.58.06c.75,2,1.39,3.74,2.1,5.67l3.95-6.8Zm11.66-4.31h6.31l-3.16-3.71Zm12.59,22,5-.94c-.65-1.69-1.18-3.1-1.8-4.72Zm-22.11-5.65-1.78,4.69,5,.92Z" transform="translate(-32.43 -27.64)"/><path d="M308.89,539.28a6.56,6.56,0,1,1,6.59-6.52A6.58,6.58,0,0,1,308.89,539.28Z" transform="translate(-32.43 -27.64)"/><path d="M455.23,668.8H403.72V617.14h51.51ZM450.54,664V621.8H408.38V664Z" transform="translate(-32.43 -27.64)"/><path d="M434.24,654.57h-4.76v-2.15h-7v2.12h-4.85a20.6,20.6,0,0,1,.41-4c1.8-6,3.77-12,5.61-18a1.61,1.61,0,0,1,1.9-1.39c2.26.09,2.28,0,3,2.2,1.82,5.74,3.67,11.47,5.39,17.25A19.32,19.32,0,0,1,434.24,654.57Zm-6.18-7.06c-.68-2.17-1.33-4.23-2-6.28l-.25,0-1.95,6.26Z" transform="translate(-32.43 -27.64)"/><path d="M441.16,640.65v13.92h-4.59V640.65Z" transform="translate(-32.43 -27.64)"/><path d="M441.17,631.23v4.49H436.6v-4.49Z" transform="translate(-32.43 -27.64)"/><path d="M661.18,178.59h-4.81l-.14-2.15a5,5,0,0,0-.67-.1h-6.23l-.14,2.21h-4.74a21.87,21.87,0,0,1,.42-4.15c1.78-6,3.73-11.9,5.56-17.87a1.59,1.59,0,0,1,1.9-1.37c2.82.15,2.11-.5,3,2.29,1.77,5.48,3.53,11,5.18,16.49A31.55,31.55,0,0,1,661.18,178.59Zm-6.3-7-2-6.3-.28,0-2,6.25Z" transform="translate(-32.43 -27.64)"/><path d="M668.46,171.64c.18,2,.53,2.32,2.13,2.34,1.43,0,2.86,0,4.4,0v4.55a39.3,39.3,0,0,1-6-.06,6.13,6.13,0,0,1-5-4.55,15.84,15.84,0,0,1-.06-9.37,6.33,6.33,0,0,1,5.73-4.62,5.78,5.78,0,0,1,6.24,3.31,22.36,22.36,0,0,1,1.49,5.34c.21,1.08-1.93,3-3.15,3C672.34,171.65,670.44,171.64,668.46,171.64Zm3.75-4.79c-.23-1.68-.94-2.36-2.27-2.26-1.14.08-1.53.64-1.53,2.26Z" transform="translate(-32.43 -27.64)"/><path d="M151.21,194.76V144.24H201.8v50.52Zm46-45.91H155.88v41.32h41.37Z" transform="translate(-32.43 -27.64)"/><path d="M167.33,171.77V181c-1.41,0-2.73,0-4.06,0-.19,0-.51-.46-.51-.7,0-7.38,0-14.75,0-22.48,3.07.17,6.1,0,9,.57,3.23.64,5.14,4,4.79,7.27a6.83,6.83,0,0,1-6.27,6.1C169.34,171.84,168.43,171.77,167.33,171.77Zm.07-4.57c1.51,0,3,.43,4.11-1a2.06,2.06,0,0,0,.06-2.54c-1.07-1.58-2.66-.95-4.17-1Z" transform="translate(-32.43 -27.64)"/><path d="M179.05,175.48c1.26,0,2.54,0,3.83,0a.69.69,0,0,1,.52.26,1.16,1.16,0,0,0,1.76.5c.31-.15.65-1,.55-1.11a3.09,3.09,0,0,0-1.57-1,5.79,5.79,0,0,1-5.24-5.93,5.72,5.72,0,0,1,5.44-5.58c3.29-.13,5.63,1.89,6,5.48-1.7-.37-3.44.95-5-.64-.23-.23-.93-.14-1.32,0a1.11,1.11,0,0,0-.51.93,1.82,1.82,0,0,0,.86,1,6.8,6.8,0,0,0,1.53.27,5.78,5.78,0,0,1,1.45,10.74,6.43,6.43,0,0,1-6.95-.86A4.82,4.82,0,0,1,179.05,175.48Z" transform="translate(-32.43 -27.64)"/><path d="M550.09,51.93a33.07,33.07,0,0,1,9.11-8.49c6.61-3.84,14.47-2.36,18.74,3.52a14.66,14.66,0,0,1-.77,18.38c-4.61,5.09-11.71,6.08-17.94,2.47a33.17,33.17,0,0,1-9-8.36c-1.55,1.66-3,3.36-4.61,4.9a19,19,0,0,1-9.89,5.44c-7.49,1.32-15-4.21-16.13-11.73a14.34,14.34,0,0,1,12.49-16.73,15.77,15.77,0,0,1,10.42,3A31.6,31.6,0,0,1,550.09,51.93ZM533.35,66.14a32.84,32.84,0,0,0,4.55-1.39c4-1.86,6.91-5,9.31-8.64a1.3,1.3,0,0,0-.14-1.2,66.77,66.77,0,0,0-5.43-6.07,12.29,12.29,0,0,0-8-3.44c-6.52-.23-11,5.69-10.07,11.82A10.5,10.5,0,0,0,533.35,66.14Zm33.16-.25a9.65,9.65,0,0,0,9.62-6.73,10,10,0,0,0-2.52-11,9.23,9.23,0,0,0-10.48-2c-4.44,1.77-7.55,5.13-10.13,9a1.19,1.19,0,0,0,.12,1.11,77.86,77.86,0,0,0,5.68,6.21A12,12,0,0,0,566.51,65.89Z" transform="translate(-32.43 -27.64)"/><path d="M527.6,53.65h12.15v3.94H527.6Z" transform="translate(-32.43 -27.64)"/><path d="M564.42,53.56V49.5c1.24,0,2.35,0,3.45,0,.24,0,.57.53.62.86.14,1-.19,2.35.35,3s1.88.12,2.86.25c.34,0,.87.43.9.71a32.77,32.77,0,0,1,0,3.31h-4v4.05h-4.13v-4h-4.07V53.56Z" transform="translate(-32.43 -27.64)"/><path d="M33.5,58.42c0-3.61,0-7.22,0-10.82a5.28,5.28,0,0,1,2.92-5q9.74-5.43,19.42-10.91a5.62,5.62,0,0,1,6,0q9.63,5.48,19.31,10.85a5.37,5.37,0,0,1,3,5.07q0,10.88,0,21.76a5.28,5.28,0,0,1-2.92,5q-9.78,5.48-19.53,11a5.43,5.43,0,0,1-5.79,0q-9.75-5.52-19.53-11a5.26,5.26,0,0,1-2.9-5C33.53,65.71,33.5,62.06,33.5,58.42Zm48.22-1.2c0-3.32,0-6.49,0-9.65a3,3,0,0,0-1.67-2.84q-9.78-5.48-19.52-11a3.22,3.22,0,0,0-3.44,0Q47.42,39.23,37.7,44.65a3.16,3.16,0,0,0-1.79,3q.06,10.81,0,21.63a3,3,0,0,0,1.69,3q9.78,5.46,19.52,11a3.15,3.15,0,0,0,3.33,0q9.85-5.58,19.74-11.12a2.79,2.79,0,0,0,1.53-2.66c0-3,0-6,0-9a4.66,4.66,0,0,0-.13-.73H79.34L79.24,62H77l-.17-2.26-2.23-.14V57.38l2.24-.18L77,55h2.39v2.25Z" transform="translate(-32.43 -27.64)"/><path d="M72,50.17l-7.14,4.15a7.57,7.57,0,0,0-7-3,7,7,0,0,0-4.58,2.5,7.18,7.18,0,0,0,.46,9.8c3.06,3,6.94,2.71,11.13-.93l3.54,2.06,3.48,2c-2.19,4.37-8.67,8.35-15.7,7.17a15.67,15.67,0,0,1-1.74-30.5C61.08,41.5,68.77,44.41,72,50.17Zm-3.67-.67A12.87,12.87,0,0,0,54,46.14a13.25,13.25,0,0,0,1.06,25.07C60,72.62,65.8,71,68.24,67.43a19.51,19.51,0,0,1-1.89-1.11,1.7,1.7,0,0,0-2.36.09,8.76,8.76,0,0,1-9.83.49,9.56,9.56,0,0,1-3.5-13.51,9.41,9.41,0,0,1,13.75-2.58,1.43,1.43,0,0,0,1.09.3C66.47,50.65,67.37,50.06,68.31,49.5Z" transform="translate(-32.43 -27.64)"/><path d="M68.51,55c2.23-.29,2.23-.29,2.44,2.18.34,0,.71.08,1.08.1l1.2.08V59.6l-2.3.2L70.81,62H68.54l-.16-2.23-2.2-.12V57.36l2.22-.14Z" transform="translate(-32.43 -27.64)"/><path d="M323.29,417.68a15.29,15.29,0,1,1,0-16.33L316,405.63a5.84,5.84,0,0,0-.79-1.27,7,7,0,0,0-10,9.94,6.88,6.88,0,0,0,9.82.44,1.86,1.86,0,0,1,2.82-.26C319.58,415.61,321.42,416.59,323.29,417.68Zm-3.67.59a20.45,20.45,0,0,1-1.87-1.11,1.64,1.64,0,0,0-2.27,0,8.49,8.49,0,0,1-9.23.73,9.34,9.34,0,0,1-3.89-13.31c2.86-4.75,8.79-5.9,13.47-2.63a1.44,1.44,0,0,0,1.1.29,29.89,29.89,0,0,0,2.68-1.54c-4.05-5.22-12.75-5.57-17.91-.83a12.93,12.93,0,0,0-.1,19.09C306.78,423.83,315.55,423.51,319.62,418.27Z" transform="translate(-32.43 -27.64)"/><path d="M331.53,406.05v2.17l-2.14.19c-.38,2.06-.38,2.06,2.08,2.41V413l-2.17.16-.14,2.07c-2.09.52-2.15.47-2.38-2h-2.19l-.13,2c-1.93.53-2,.49-2.47-2.05L319.9,413v-2.17l2.19-.21v-2.16l-2.19-.18v-2.18l2.18-.18.15-2.17h2.22l.12,2.14h2.22l.14-2.13h2.22l.15,2.17Zm-6.75,2.14-.4.39c.17.69.16,1.54.58,2,.26.28,1.35.16,1.74-.17a1.64,1.64,0,0,0,.08-1.64A5.38,5.38,0,0,0,324.78,408.19Z" transform="translate(-32.43 -27.64)"/><path d="M319.81,298.43c-1.87.31-3.73.63-5.6.93-1.5.23-1.94-.12-1.94-1.58,0-5.9,0-11.8,0-17.71,0-1.12.4-1.68,1.6-1.67,4.12,0,8.24,0,12.37,0,1.37,0,1.65.33,1.56,1.75-.08,1.13-.22,2.25-.27,3.38s-.6,1.53-1.67,1.52c-2.24,0-4.49,0-6.82,0v6.46c2-.26,3.9-.54,5.82-.78,1.65-.21,2,.17,1.87,1.85-.34,4-.71,8-1,12.06a1.85,1.85,0,0,1-1.5,1.95c-3.32.87-6.61,1.8-9.92,2.69-1.51.4-2,0-2-1.54,0-1.21.08-2.43,0-3.64s.49-1.88,1.7-2.15c1.52-.35,3-.9,4.52-1.19C319.83,300.49,320.12,299.76,319.81,298.43Zm4.63-5.4-5.9.81c-1.35.18-1.8-.17-1.82-1.47,0-2.65,0-5.3,0-7.95,0-1.18.55-1.62,1.69-1.59,1.73,0,3.47,0,5.2,0,1.95,0,2,0,1.74-2.15H314.63V297c2.05-.35,4-.7,5.89-1,1.33-.21,1.79.2,1.73,1.52-.05,1-.17,2.08-.18,3.12a1.7,1.7,0,0,1-1.5,1.8c-1.77.44-3.53.92-5.26,1.48a1.39,1.39,0,0,0-.76.92,11.44,11.44,0,0,0,0,2.05c2.88-.8,5.59-1.53,8.29-2.32a1.12,1.12,0,0,0,.68-.77C323.83,300.31,324.12,296.77,324.44,293Z" transform="translate(-32.43 -27.64)"/><path d="M303.39,300.18V288.51c0-2.82,0-5.64,0-8.46,0-1.15.44-1.69,1.61-1.65s2.08,0,3.12,0c1.75,0,2,.21,2,1.93v21.21c0,2.09,0,4.17,0,6.25,0,1.47-.54,1.87-1.94,1.49-3.68-1-7.35-2.05-11-3a1.73,1.73,0,0,1-1.49-2c.07-1.43,0-2.86,0-4.3s.55-1.72,1.82-1.38C299.37,299.06,301.28,299.6,303.39,300.18Zm2.25-19.51v20.1c0,1.9-.44,2.22-2.29,1.71s-3.58-1-5.51-1.51c0,1,0,1.8,0,2.61a1,1,0,0,0,.56.7c3.07.89,6.16,1.73,9.27,2.59v-26.2Z" transform="translate(-32.43 -27.64)"/></g></svg>